<?xml version="1.0" encoding="utf-8"?>
<svg xmlns="http://www.w3.org/2000/svg" xmlns:xlink="http://www.w3.org/1999/xlink" width="600" height="400" viewBox="0 0 2400 1600">
<defs>
  <clipPath id="clip050">
    <rect x="0" y="0" width="2400" height="1600"/>
  </clipPath>
</defs>
<path clip-path="url(#clip050)" d="
M0 1600 L2400 1600 L2400 0 L0 0  Z
  " fill="#ffffff" fill-rule="evenodd" fill-opacity="1"/>
<defs>
  <clipPath id="clip051">
    <rect x="480" y="0" width="1681" height="1600"/>
  </clipPath>
</defs>
<path clip-path="url(#clip050)" d="
M175.445 1410.9 L2352.76 1410.9 L2352.76 123.472 L175.445 123.472  Z
  " fill="#ffffff" fill-rule="evenodd" fill-opacity="1"/>
<defs>
  <clipPath id="clip052">
    <rect x="175" y="123" width="2178" height="1288"/>
  </clipPath>
</defs>
<polyline clip-path="url(#clip052)" style="stroke:#000000; stroke-linecap:round; stroke-linejoin:round; stroke-width:2; stroke-opacity:0.1; fill:none" points="
  237.067,1410.9 237.067,123.472 
  "/>
<polyline clip-path="url(#clip052)" style="stroke:#000000; stroke-linecap:round; stroke-linejoin:round; stroke-width:2; stroke-opacity:0.1; fill:none" points="
  751.613,1410.9 751.613,123.472 
  "/>
<polyline clip-path="url(#clip052)" style="stroke:#000000; stroke-linecap:round; stroke-linejoin:round; stroke-width:2; stroke-opacity:0.1; fill:none" points="
  1266.16,1410.9 1266.16,123.472 
  "/>
<polyline clip-path="url(#clip052)" style="stroke:#000000; stroke-linecap:round; stroke-linejoin:round; stroke-width:2; stroke-opacity:0.1; fill:none" points="
  1780.7,1410.9 1780.7,123.472 
  "/>
<polyline clip-path="url(#clip052)" style="stroke:#000000; stroke-linecap:round; stroke-linejoin:round; stroke-width:2; stroke-opacity:0.1; fill:none" points="
  2295.25,1410.9 2295.25,123.472 
  "/>
<polyline clip-path="url(#clip050)" style="stroke:#000000; stroke-linecap:round; stroke-linejoin:round; stroke-width:4; stroke-opacity:1; fill:none" points="
  175.445,1410.9 2352.76,1410.9 
  "/>
<polyline clip-path="url(#clip050)" style="stroke:#000000; stroke-linecap:round; stroke-linejoin:round; stroke-width:4; stroke-opacity:1; fill:none" points="
  237.067,1410.9 237.067,1392 
  "/>
<polyline clip-path="url(#clip050)" style="stroke:#000000; stroke-linecap:round; stroke-linejoin:round; stroke-width:4; stroke-opacity:1; fill:none" points="
  751.613,1410.9 751.613,1392 
  "/>
<polyline clip-path="url(#clip050)" style="stroke:#000000; stroke-linecap:round; stroke-linejoin:round; stroke-width:4; stroke-opacity:1; fill:none" points="
  1266.16,1410.9 1266.16,1392 
  "/>
<polyline clip-path="url(#clip050)" style="stroke:#000000; stroke-linecap:round; stroke-linejoin:round; stroke-width:4; stroke-opacity:1; fill:none" points="
  1780.7,1410.9 1780.7,1392 
  "/>
<polyline clip-path="url(#clip050)" style="stroke:#000000; stroke-linecap:round; stroke-linejoin:round; stroke-width:4; stroke-opacity:1; fill:none" points="
  2295.25,1410.9 2295.25,1392 
  "/>
<path clip-path="url(#clip050)" d="M237.067 1441.82 Q233.456 1441.82 231.627 1445.38 Q229.822 1448.92 229.822 1456.05 Q229.822 1463.16 231.627 1466.72 Q233.456 1470.26 237.067 1470.26 Q240.701 1470.26 242.507 1466.72 Q244.336 1463.16 244.336 1456.05 Q244.336 1448.92 242.507 1445.38 Q240.701 1441.82 237.067 1441.82 M237.067 1438.11 Q242.877 1438.11 245.933 1442.72 Q249.012 1447.3 249.012 1456.05 Q249.012 1464.78 245.933 1469.38 Q242.877 1473.97 237.067 1473.97 Q231.257 1473.97 228.178 1469.38 Q225.123 1464.78 225.123 1456.05 Q225.123 1447.3 228.178 1442.72 Q231.257 1438.11 237.067 1438.11 Z" fill="#000000" fill-rule="evenodd" fill-opacity="1" /><path clip-path="url(#clip050)" d="M643.442 1454.4 L661.799 1454.4 L661.799 1458.33 L647.725 1458.33 L647.725 1466.8 Q648.743 1466.46 649.762 1466.29 Q650.78 1466.11 651.799 1466.11 Q657.586 1466.11 660.965 1469.28 Q664.345 1472.45 664.345 1477.87 Q664.345 1483.45 660.873 1486.55 Q657.401 1489.63 651.081 1489.63 Q648.905 1489.63 646.637 1489.26 Q644.391 1488.89 641.984 1488.15 L641.984 1483.45 Q644.067 1484.58 646.289 1485.14 Q648.512 1485.69 650.989 1485.69 Q654.993 1485.69 657.331 1483.59 Q659.669 1481.48 659.669 1477.87 Q659.669 1474.26 657.331 1472.15 Q654.993 1470.04 650.989 1470.04 Q649.114 1470.04 647.239 1470.46 Q645.387 1470.88 643.442 1471.76 L643.442 1454.4 Z" fill="#000000" fill-rule="evenodd" fill-opacity="1" /><path clip-path="url(#clip050)" d="M673.558 1483.08 L678.442 1483.08 L678.442 1488.96 L673.558 1488.96 L673.558 1483.08 Z" fill="#000000" fill-rule="evenodd" fill-opacity="1" /><path clip-path="url(#clip050)" d="M698.627 1457.48 Q695.016 1457.48 693.187 1461.04 Q691.382 1464.58 691.382 1471.71 Q691.382 1478.82 693.187 1482.38 Q695.016 1485.92 698.627 1485.92 Q702.261 1485.92 704.067 1482.38 Q705.896 1478.82 705.896 1471.71 Q705.896 1464.58 704.067 1461.04 Q702.261 1457.48 698.627 1457.48 M698.627 1453.77 Q704.437 1453.77 707.493 1458.38 Q710.572 1462.96 710.572 1471.71 Q710.572 1480.44 707.493 1485.04 Q704.437 1489.63 698.627 1489.63 Q692.817 1489.63 689.738 1485.04 Q686.683 1480.44 686.683 1471.71 Q686.683 1462.96 689.738 1458.38 Q692.817 1453.77 698.627 1453.77 Z" fill="#000000" fill-rule="evenodd" fill-opacity="1" /><path clip-path="url(#clip050)" d="M728.789 1457.48 Q725.178 1457.48 723.349 1461.04 Q721.544 1464.58 721.544 1471.71 Q721.544 1478.82 723.349 1482.38 Q725.178 1485.92 728.789 1485.92 Q732.423 1485.92 734.229 1482.38 Q736.058 1478.82 736.058 1471.71 Q736.058 1464.58 734.229 1461.04 Q732.423 1457.48 728.789 1457.48 M728.789 1453.77 Q734.599 1453.77 737.655 1458.38 Q740.733 1462.96 740.733 1471.71 Q740.733 1480.44 737.655 1485.04 Q734.599 1489.63 728.789 1489.63 Q722.979 1489.63 719.9 1485.04 Q716.845 1480.44 716.845 1471.71 Q716.845 1462.96 719.9 1458.38 Q722.979 1453.77 728.789 1453.77 Z" fill="#000000" fill-rule="evenodd" fill-opacity="1" /><path clip-path="url(#clip050)" d="M777.122 1463.49 L766.543 1474.12 L777.122 1484.7 L774.367 1487.5 L763.743 1476.87 L753.118 1487.5 L750.386 1484.7 L760.942 1474.12 L750.386 1463.49 L753.118 1460.69 L763.743 1471.32 L774.367 1460.69 L777.122 1463.49 Z" fill="#000000" fill-rule="evenodd" fill-opacity="1" /><path clip-path="url(#clip050)" d="M789.483 1485.02 L797.122 1485.02 L797.122 1458.66 L788.812 1460.32 L788.812 1456.06 L797.076 1454.4 L801.752 1454.4 L801.752 1485.02 L809.39 1485.02 L809.39 1488.96 L789.483 1488.96 L789.483 1485.02 Z" fill="#000000" fill-rule="evenodd" fill-opacity="1" /><path clip-path="url(#clip050)" d="M828.835 1457.48 Q825.224 1457.48 823.395 1461.04 Q821.589 1464.58 821.589 1471.71 Q821.589 1478.82 823.395 1482.38 Q825.224 1485.92 828.835 1485.92 Q832.469 1485.92 834.275 1482.38 Q836.103 1478.82 836.103 1471.71 Q836.103 1464.58 834.275 1461.04 Q832.469 1457.48 828.835 1457.48 M828.835 1453.77 Q834.645 1453.77 837.7 1458.38 Q840.779 1462.96 840.779 1471.71 Q840.779 1480.44 837.7 1485.04 Q834.645 1489.63 828.835 1489.63 Q823.025 1489.63 819.946 1485.04 Q816.89 1480.44 816.89 1471.71 Q816.89 1462.96 819.946 1458.38 Q823.025 1453.77 828.835 1453.77 Z" fill="#000000" fill-rule="evenodd" fill-opacity="1" /><path clip-path="url(#clip050)" d="M853.456 1436.78 L843.864 1451.77 L853.456 1451.77 L853.456 1436.78 M852.459 1433.47 L857.236 1433.47 L857.236 1451.77 L861.242 1451.77 L861.242 1454.93 L857.236 1454.93 L857.236 1461.55 L853.456 1461.55 L853.456 1454.93 L840.779 1454.93 L840.779 1451.26 L852.459 1433.47 Z" fill="#000000" fill-rule="evenodd" fill-opacity="1" /><path clip-path="url(#clip050)" d="M1159.12 1485.02 L1166.76 1485.02 L1166.76 1458.66 L1158.45 1460.32 L1158.45 1456.06 L1166.72 1454.4 L1171.39 1454.4 L1171.39 1485.02 L1179.03 1485.02 L1179.03 1488.96 L1159.12 1488.96 L1159.12 1485.02 Z" fill="#000000" fill-rule="evenodd" fill-opacity="1" /><path clip-path="url(#clip050)" d="M1188.48 1483.08 L1193.36 1483.08 L1193.36 1488.96 L1188.48 1488.96 L1188.48 1483.08 Z" fill="#000000" fill-rule="evenodd" fill-opacity="1" /><path clip-path="url(#clip050)" d="M1213.54 1457.48 Q1209.93 1457.48 1208.1 1461.04 Q1206.3 1464.58 1206.3 1471.71 Q1206.3 1478.82 1208.1 1482.38 Q1209.93 1485.92 1213.54 1485.92 Q1217.18 1485.92 1218.98 1482.38 Q1220.81 1478.82 1220.81 1471.71 Q1220.81 1464.58 1218.98 1461.04 Q1217.18 1457.48 1213.54 1457.48 M1213.54 1453.77 Q1219.35 1453.77 1222.41 1458.38 Q1225.49 1462.96 1225.49 1471.71 Q1225.49 1480.44 1222.41 1485.04 Q1219.35 1489.63 1213.54 1489.63 Q1207.73 1489.63 1204.66 1485.04 Q1201.6 1480.44 1201.6 1471.71 Q1201.6 1462.96 1204.66 1458.38 Q1207.73 1453.77 1213.54 1453.77 Z" fill="#000000" fill-rule="evenodd" fill-opacity="1" /><path clip-path="url(#clip050)" d="M1243.71 1457.48 Q1240.1 1457.48 1238.27 1461.04 Q1236.46 1464.58 1236.46 1471.71 Q1236.46 1478.82 1238.27 1482.38 Q1240.1 1485.92 1243.71 1485.92 Q1247.34 1485.92 1249.15 1482.38 Q1250.98 1478.82 1250.98 1471.71 Q1250.98 1464.58 1249.15 1461.04 Q1247.34 1457.48 1243.71 1457.48 M1243.71 1453.77 Q1249.52 1453.77 1252.57 1458.38 Q1255.65 1462.96 1255.65 1471.71 Q1255.65 1480.44 1252.57 1485.04 Q1249.52 1489.63 1243.71 1489.63 Q1237.9 1489.63 1234.82 1485.04 Q1231.76 1480.44 1231.76 1471.71 Q1231.76 1462.96 1234.82 1458.38 Q1237.9 1453.77 1243.71 1453.77 Z" fill="#000000" fill-rule="evenodd" fill-opacity="1" /><path clip-path="url(#clip050)" d="M1292.04 1463.49 L1281.46 1474.12 L1292.04 1484.7 L1289.29 1487.5 L1278.66 1476.87 L1268.04 1487.5 L1265.3 1484.7 L1275.86 1474.12 L1265.3 1463.49 L1268.04 1460.69 L1278.66 1471.32 L1289.29 1460.69 L1292.04 1463.49 Z" fill="#000000" fill-rule="evenodd" fill-opacity="1" /><path clip-path="url(#clip050)" d="M1304.4 1485.02 L1312.04 1485.02 L1312.04 1458.66 L1303.73 1460.32 L1303.73 1456.06 L1311.99 1454.4 L1316.67 1454.4 L1316.67 1485.02 L1324.31 1485.02 L1324.31 1488.96 L1304.4 1488.96 L1304.4 1485.02 Z" fill="#000000" fill-rule="evenodd" fill-opacity="1" /><path clip-path="url(#clip050)" d="M1343.75 1457.48 Q1340.14 1457.48 1338.31 1461.04 Q1336.51 1464.58 1336.51 1471.71 Q1336.51 1478.82 1338.31 1482.38 Q1340.14 1485.92 1343.75 1485.92 Q1347.39 1485.92 1349.19 1482.38 Q1351.02 1478.82 1351.02 1471.71 Q1351.02 1464.58 1349.19 1461.04 Q1347.39 1457.48 1343.75 1457.48 M1343.75 1453.77 Q1349.56 1453.77 1352.62 1458.38 Q1355.7 1462.96 1355.7 1471.71 Q1355.7 1480.44 1352.62 1485.04 Q1349.56 1489.63 1343.75 1489.63 Q1337.94 1489.63 1334.86 1485.04 Q1331.81 1480.44 1331.81 1471.71 Q1331.81 1462.96 1334.86 1458.38 Q1337.94 1453.77 1343.75 1453.77 Z" fill="#000000" fill-rule="evenodd" fill-opacity="1" /><path clip-path="url(#clip050)" d="M1356.88 1433.47 L1371.8 1433.47 L1371.8 1436.66 L1360.36 1436.66 L1360.36 1443.55 Q1361.19 1443.27 1362.02 1443.13 Q1362.84 1442.98 1363.67 1442.98 Q1368.37 1442.98 1371.12 1445.56 Q1373.87 1448.14 1373.87 1452.54 Q1373.87 1457.07 1371.04 1459.59 Q1368.22 1462.09 1363.09 1462.09 Q1361.32 1462.09 1359.48 1461.79 Q1357.65 1461.49 1355.7 1460.89 L1355.7 1457.07 Q1357.39 1457.99 1359.19 1458.44 Q1361 1458.89 1363.01 1458.89 Q1366.27 1458.89 1368.17 1457.18 Q1370.07 1455.47 1370.07 1452.54 Q1370.07 1449.6 1368.17 1447.89 Q1366.27 1446.18 1363.01 1446.18 Q1361.49 1446.18 1359.97 1446.52 Q1358.46 1446.86 1356.88 1447.57 L1356.88 1433.47 Z" fill="#000000" fill-rule="evenodd" fill-opacity="1" /><path clip-path="url(#clip050)" d="M1673.67 1485.02 L1681.31 1485.02 L1681.31 1458.66 L1673 1460.32 L1673 1456.06 L1681.26 1454.4 L1685.94 1454.4 L1685.94 1485.02 L1693.58 1485.02 L1693.58 1488.96 L1673.67 1488.96 L1673.67 1485.02 Z" fill="#000000" fill-rule="evenodd" fill-opacity="1" /><path clip-path="url(#clip050)" d="M1703.02 1483.08 L1707.91 1483.08 L1707.91 1488.96 L1703.02 1488.96 L1703.02 1483.08 Z" fill="#000000" fill-rule="evenodd" fill-opacity="1" /><path clip-path="url(#clip050)" d="M1718.14 1454.4 L1736.49 1454.4 L1736.49 1458.33 L1722.42 1458.33 L1722.42 1466.8 Q1723.44 1466.46 1724.46 1466.29 Q1725.47 1466.11 1726.49 1466.11 Q1732.28 1466.11 1735.66 1469.28 Q1739.04 1472.45 1739.04 1477.87 Q1739.04 1483.45 1735.57 1486.55 Q1732.1 1489.63 1725.78 1489.63 Q1723.6 1489.63 1721.33 1489.26 Q1719.09 1488.89 1716.68 1488.15 L1716.68 1483.45 Q1718.76 1484.58 1720.98 1485.14 Q1723.21 1485.69 1725.68 1485.69 Q1729.69 1485.69 1732.03 1483.59 Q1734.36 1481.48 1734.36 1477.87 Q1734.36 1474.26 1732.03 1472.15 Q1729.69 1470.04 1725.68 1470.04 Q1723.81 1470.04 1721.93 1470.46 Q1720.08 1470.88 1718.14 1471.76 L1718.14 1454.4 Z" fill="#000000" fill-rule="evenodd" fill-opacity="1" /><path clip-path="url(#clip050)" d="M1758.25 1457.48 Q1754.64 1457.48 1752.81 1461.04 Q1751.01 1464.58 1751.01 1471.71 Q1751.01 1478.82 1752.81 1482.38 Q1754.64 1485.92 1758.25 1485.92 Q1761.89 1485.92 1763.69 1482.38 Q1765.52 1478.82 1765.52 1471.71 Q1765.52 1464.58 1763.69 1461.04 Q1761.89 1457.48 1758.25 1457.48 M1758.25 1453.77 Q1764.06 1453.77 1767.12 1458.38 Q1770.2 1462.96 1770.2 1471.71 Q1770.2 1480.44 1767.12 1485.04 Q1764.06 1489.63 1758.25 1489.63 Q1752.44 1489.63 1749.36 1485.04 Q1746.31 1480.44 1746.31 1471.71 Q1746.31 1462.96 1749.36 1458.38 Q1752.44 1453.77 1758.25 1453.77 Z" fill="#000000" fill-rule="evenodd" fill-opacity="1" /><path clip-path="url(#clip050)" d="M1806.59 1463.49 L1796.01 1474.12 L1806.59 1484.7 L1803.83 1487.5 L1793.21 1476.87 L1782.58 1487.5 L1779.85 1484.7 L1790.4 1474.12 L1779.85 1463.49 L1782.58 1460.69 L1793.21 1471.32 L1803.83 1460.69 L1806.59 1463.49 Z" fill="#000000" fill-rule="evenodd" fill-opacity="1" /><path clip-path="url(#clip050)" d="M1818.95 1485.02 L1826.59 1485.02 L1826.59 1458.66 L1818.28 1460.32 L1818.28 1456.06 L1826.54 1454.4 L1831.21 1454.4 L1831.21 1485.02 L1838.85 1485.02 L1838.85 1488.96 L1818.95 1488.96 L1818.95 1485.02 Z" fill="#000000" fill-rule="evenodd" fill-opacity="1" /><path clip-path="url(#clip050)" d="M1858.3 1457.48 Q1854.69 1457.48 1852.86 1461.04 Q1851.05 1464.58 1851.05 1471.71 Q1851.05 1478.82 1852.86 1482.38 Q1854.69 1485.92 1858.3 1485.92 Q1861.93 1485.92 1863.74 1482.38 Q1865.57 1478.82 1865.57 1471.71 Q1865.57 1464.58 1863.74 1461.04 Q1861.93 1457.48 1858.3 1457.48 M1858.3 1453.77 Q1864.11 1453.77 1867.16 1458.38 Q1870.24 1462.96 1870.24 1471.71 Q1870.24 1480.44 1867.16 1485.04 Q1864.11 1489.63 1858.3 1489.63 Q1852.49 1489.63 1849.41 1485.04 Q1846.35 1480.44 1846.35 1471.71 Q1846.35 1462.96 1849.41 1458.38 Q1852.49 1453.77 1858.3 1453.77 Z" fill="#000000" fill-rule="evenodd" fill-opacity="1" /><path clip-path="url(#clip050)" d="M1871.43 1433.47 L1886.34 1433.47 L1886.34 1436.66 L1874.91 1436.66 L1874.91 1443.55 Q1875.73 1443.27 1876.56 1443.13 Q1877.39 1442.98 1878.22 1442.98 Q1882.92 1442.98 1885.66 1445.56 Q1888.41 1448.14 1888.41 1452.54 Q1888.41 1457.07 1885.59 1459.59 Q1882.77 1462.09 1877.63 1462.09 Q1875.87 1462.09 1874.02 1461.79 Q1872.2 1461.49 1870.24 1460.89 L1870.24 1457.07 Q1871.94 1457.99 1873.74 1458.44 Q1875.55 1458.89 1877.56 1458.89 Q1880.81 1458.89 1882.71 1457.18 Q1884.61 1455.47 1884.61 1452.54 Q1884.61 1449.6 1882.71 1447.89 Q1880.81 1446.18 1877.56 1446.18 Q1876.04 1446.18 1874.51 1446.52 Q1873.01 1446.86 1871.43 1447.57 L1871.43 1433.47 Z" fill="#000000" fill-rule="evenodd" fill-opacity="1" /><path clip-path="url(#clip050)" d="M2192.3 1485.02 L2208.62 1485.02 L2208.62 1488.96 L2186.68 1488.96 L2186.68 1485.02 Q2189.34 1482.27 2193.92 1477.64 Q2198.53 1472.98 2199.71 1471.64 Q2201.95 1469.12 2202.83 1467.38 Q2203.74 1465.62 2203.74 1463.93 Q2203.74 1461.18 2201.79 1459.44 Q2199.87 1457.71 2196.77 1457.71 Q2194.57 1457.71 2192.12 1458.47 Q2189.69 1459.23 2186.91 1460.79 L2186.91 1456.06 Q2189.73 1454.93 2192.19 1454.35 Q2194.64 1453.77 2196.68 1453.77 Q2202.05 1453.77 2205.24 1456.46 Q2208.44 1459.14 2208.44 1463.63 Q2208.44 1465.76 2207.62 1467.68 Q2206.84 1469.58 2204.73 1472.17 Q2204.15 1472.85 2201.05 1476.06 Q2197.95 1479.26 2192.3 1485.02 Z" fill="#000000" fill-rule="evenodd" fill-opacity="1" /><path clip-path="url(#clip050)" d="M2218.43 1483.08 L2223.32 1483.08 L2223.32 1488.96 L2218.43 1488.96 L2218.43 1483.08 Z" fill="#000000" fill-rule="evenodd" fill-opacity="1" /><path clip-path="url(#clip050)" d="M2243.5 1457.48 Q2239.89 1457.48 2238.06 1461.04 Q2236.26 1464.58 2236.26 1471.71 Q2236.26 1478.82 2238.06 1482.38 Q2239.89 1485.92 2243.5 1485.92 Q2247.14 1485.92 2248.94 1482.38 Q2250.77 1478.82 2250.77 1471.71 Q2250.77 1464.58 2248.94 1461.04 Q2247.14 1457.48 2243.5 1457.48 M2243.5 1453.77 Q2249.31 1453.77 2252.37 1458.38 Q2255.45 1462.96 2255.45 1471.71 Q2255.45 1480.44 2252.37 1485.04 Q2249.31 1489.63 2243.5 1489.63 Q2237.69 1489.63 2234.62 1485.04 Q2231.56 1480.44 2231.56 1471.71 Q2231.56 1462.96 2234.62 1458.38 Q2237.69 1453.77 2243.5 1453.77 Z" fill="#000000" fill-rule="evenodd" fill-opacity="1" /><path clip-path="url(#clip050)" d="M2273.67 1457.48 Q2270.06 1457.48 2268.23 1461.04 Q2266.42 1464.58 2266.42 1471.71 Q2266.42 1478.82 2268.23 1482.38 Q2270.06 1485.92 2273.67 1485.92 Q2277.3 1485.92 2279.11 1482.38 Q2280.93 1478.82 2280.93 1471.71 Q2280.93 1464.58 2279.11 1461.04 Q2277.3 1457.48 2273.67 1457.48 M2273.67 1453.77 Q2279.48 1453.77 2282.53 1458.38 Q2285.61 1462.96 2285.61 1471.71 Q2285.61 1480.44 2282.53 1485.04 Q2279.48 1489.63 2273.67 1489.63 Q2267.86 1489.63 2264.78 1485.04 Q2261.72 1480.44 2261.72 1471.71 Q2261.72 1462.96 2264.78 1458.38 Q2267.86 1453.77 2273.67 1453.77 Z" fill="#000000" fill-rule="evenodd" fill-opacity="1" /><path clip-path="url(#clip050)" d="M2322 1463.49 L2311.42 1474.12 L2322 1484.7 L2319.24 1487.5 L2308.62 1476.87 L2297.99 1487.5 L2295.26 1484.7 L2305.82 1474.12 L2295.26 1463.49 L2297.99 1460.69 L2308.62 1471.32 L2319.24 1460.69 L2322 1463.49 Z" fill="#000000" fill-rule="evenodd" fill-opacity="1" /><path clip-path="url(#clip050)" d="M2334.36 1485.02 L2342 1485.02 L2342 1458.66 L2333.69 1460.32 L2333.69 1456.06 L2341.95 1454.4 L2346.63 1454.4 L2346.63 1485.02 L2354.27 1485.02 L2354.27 1488.96 L2334.36 1488.96 L2334.36 1485.02 Z" fill="#000000" fill-rule="evenodd" fill-opacity="1" /><path clip-path="url(#clip050)" d="M2373.71 1457.48 Q2370.1 1457.48 2368.27 1461.04 Q2366.47 1464.58 2366.47 1471.71 Q2366.47 1478.82 2368.27 1482.38 Q2370.1 1485.92 2373.71 1485.92 Q2377.35 1485.92 2379.15 1482.38 Q2380.98 1478.82 2380.98 1471.71 Q2380.98 1464.58 2379.15 1461.04 Q2377.35 1457.48 2373.71 1457.48 M2373.71 1453.77 Q2379.52 1453.77 2382.58 1458.38 Q2385.66 1462.96 2385.66 1471.71 Q2385.66 1480.44 2382.58 1485.04 Q2379.52 1489.63 2373.71 1489.63 Q2367.9 1489.63 2364.82 1485.04 Q2361.77 1480.44 2361.77 1471.71 Q2361.77 1462.96 2364.82 1458.38 Q2367.9 1453.77 2373.71 1453.77 Z" fill="#000000" fill-rule="evenodd" fill-opacity="1" /><path clip-path="url(#clip050)" d="M2386.84 1433.47 L2401.76 1433.47 L2401.76 1436.66 L2390.32 1436.66 L2390.32 1443.55 Q2391.15 1443.27 2391.98 1443.13 Q2392.8 1442.98 2393.63 1442.98 Q2398.33 1442.98 2401.08 1445.56 Q2403.82 1448.14 2403.82 1452.54 Q2403.82 1457.07 2401 1459.59 Q2398.18 1462.09 2393.05 1462.09 Q2391.28 1462.09 2389.44 1461.79 Q2387.61 1461.49 2385.66 1460.89 L2385.66 1457.07 Q2387.35 1457.99 2389.15 1458.44 Q2390.96 1458.89 2392.97 1458.89 Q2396.23 1458.89 2398.13 1457.18 Q2400.03 1455.47 2400.03 1452.54 Q2400.03 1449.6 2398.13 1447.89 Q2396.23 1446.18 2392.97 1446.18 Q2391.45 1446.18 2389.93 1446.52 Q2388.42 1446.86 2386.84 1447.57 L2386.84 1433.47 Z" fill="#000000" fill-rule="evenodd" fill-opacity="1" /><path clip-path="url(#clip050)" d="M1207.24 1528.23 L1207.24 1534.5 Q1203.58 1532.74 1200.33 1531.89 Q1197.09 1531.03 1194.06 1531.03 Q1188.81 1531.03 1185.95 1533.06 Q1183.11 1535.1 1183.11 1538.86 Q1183.11 1542.01 1184.99 1543.63 Q1186.9 1545.22 1192.18 1546.21 L1196.07 1547 Q1203.26 1548.37 1206.67 1551.84 Q1210.1 1555.28 1210.1 1561.07 Q1210.1 1567.98 1205.46 1571.54 Q1200.84 1575.11 1191.9 1575.11 Q1188.52 1575.11 1184.7 1574.34 Q1180.92 1573.58 1176.84 1572.08 L1176.84 1565.46 Q1180.76 1567.66 1184.51 1568.77 Q1188.27 1569.89 1191.9 1569.89 Q1197.4 1569.89 1200.4 1567.72 Q1203.39 1565.56 1203.39 1561.55 Q1203.39 1558.05 1201.22 1556.08 Q1199.09 1554.1 1194.19 1553.11 L1190.27 1552.35 Q1183.08 1550.92 1179.87 1547.86 Q1176.65 1544.81 1176.65 1539.37 Q1176.65 1533.06 1181.08 1529.43 Q1185.53 1525.81 1193.33 1525.81 Q1196.67 1525.81 1200.14 1526.41 Q1203.61 1527.02 1207.24 1528.23 Z" fill="#000000" fill-rule="evenodd" fill-opacity="1" /><path clip-path="url(#clip050)" d="M1225.67 1528.42 L1225.67 1538.54 L1237.73 1538.54 L1237.73 1543.09 L1225.67 1543.09 L1225.67 1562.44 Q1225.67 1566.8 1226.85 1568.04 Q1228.05 1569.28 1231.72 1569.28 L1237.73 1569.28 L1237.73 1574.19 L1231.72 1574.19 Q1224.94 1574.19 1222.36 1571.67 Q1219.78 1569.12 1219.78 1562.44 L1219.78 1543.09 L1215.48 1543.09 L1215.48 1538.54 L1219.78 1538.54 L1219.78 1528.42 L1225.67 1528.42 Z" fill="#000000" fill-rule="evenodd" fill-opacity="1" /><path clip-path="url(#clip050)" d="M1275.92 1554.9 L1275.92 1557.76 L1249 1557.76 Q1249.38 1563.81 1252.63 1566.99 Q1255.9 1570.14 1261.73 1570.14 Q1265.1 1570.14 1268.25 1569.32 Q1271.44 1568.49 1274.56 1566.83 L1274.56 1572.37 Q1271.41 1573.71 1268.1 1574.41 Q1264.78 1575.11 1261.38 1575.11 Q1252.85 1575.11 1247.85 1570.14 Q1242.89 1565.18 1242.89 1556.71 Q1242.89 1547.96 1247.6 1542.83 Q1252.34 1537.68 1260.36 1537.68 Q1267.55 1537.68 1271.72 1542.33 Q1275.92 1546.94 1275.92 1554.9 M1270.07 1553.18 Q1270 1548.37 1267.36 1545.51 Q1264.75 1542.64 1260.42 1542.64 Q1255.52 1542.64 1252.56 1545.41 Q1249.63 1548.18 1249.19 1553.21 L1270.07 1553.18 Z" fill="#000000" fill-rule="evenodd" fill-opacity="1" /><path clip-path="url(#clip050)" d="M1291.2 1568.84 L1291.2 1587.74 L1285.31 1587.74 L1285.31 1538.54 L1291.2 1538.54 L1291.2 1543.95 Q1293.05 1540.77 1295.85 1539.24 Q1298.68 1537.68 1302.6 1537.68 Q1309.09 1537.68 1313.13 1542.83 Q1317.21 1547.99 1317.21 1556.39 Q1317.21 1564.8 1313.13 1569.95 Q1309.09 1575.11 1302.6 1575.11 Q1298.68 1575.11 1295.85 1573.58 Q1293.05 1572.02 1291.2 1568.84 M1311.13 1556.39 Q1311.13 1549.93 1308.45 1546.27 Q1305.81 1542.58 1301.16 1542.58 Q1296.52 1542.58 1293.84 1546.27 Q1291.2 1549.93 1291.2 1556.39 Q1291.2 1562.85 1293.84 1566.55 Q1296.52 1570.21 1301.16 1570.21 Q1305.81 1570.21 1308.45 1566.55 Q1311.13 1562.85 1311.13 1556.39 Z" fill="#000000" fill-rule="evenodd" fill-opacity="1" /><path clip-path="url(#clip050)" d="M1349.64 1539.59 L1349.64 1545.13 Q1347.16 1543.85 1344.48 1543.22 Q1341.81 1542.58 1338.95 1542.58 Q1334.58 1542.58 1332.39 1543.92 Q1330.22 1545.25 1330.22 1547.93 Q1330.22 1549.96 1331.78 1551.14 Q1333.34 1552.29 1338.05 1553.34 L1340.06 1553.78 Q1346.3 1555.12 1348.91 1557.57 Q1351.55 1559.99 1351.55 1564.35 Q1351.55 1569.32 1347.6 1572.21 Q1343.69 1575.11 1336.81 1575.11 Q1333.95 1575.11 1330.83 1574.54 Q1327.74 1573.99 1324.3 1572.88 L1324.3 1566.83 Q1327.55 1568.52 1330.7 1569.38 Q1333.85 1570.21 1336.94 1570.21 Q1341.08 1570.21 1343.31 1568.81 Q1345.53 1567.37 1345.53 1564.8 Q1345.53 1562.41 1343.91 1561.14 Q1342.32 1559.86 1336.88 1558.68 L1334.84 1558.21 Q1329.4 1557.06 1326.98 1554.71 Q1324.56 1552.32 1324.56 1548.18 Q1324.56 1543.15 1328.12 1540.42 Q1331.69 1537.68 1338.25 1537.68 Q1341.49 1537.68 1344.36 1538.16 Q1347.22 1538.63 1349.64 1539.59 Z" fill="#000000" fill-rule="evenodd" fill-opacity="1" /><polyline clip-path="url(#clip052)" style="stroke:#000000; stroke-linecap:round; stroke-linejoin:round; stroke-width:2; stroke-opacity:0.1; fill:none" points="
  175.445,1215.67 2352.76,1215.67 
  "/>
<polyline clip-path="url(#clip052)" style="stroke:#000000; stroke-linecap:round; stroke-linejoin:round; stroke-width:2; stroke-opacity:0.1; fill:none" points="
  175.445,958.165 2352.76,958.165 
  "/>
<polyline clip-path="url(#clip052)" style="stroke:#000000; stroke-linecap:round; stroke-linejoin:round; stroke-width:2; stroke-opacity:0.1; fill:none" points="
  175.445,700.663 2352.76,700.663 
  "/>
<polyline clip-path="url(#clip052)" style="stroke:#000000; stroke-linecap:round; stroke-linejoin:round; stroke-width:2; stroke-opacity:0.1; fill:none" points="
  175.445,443.161 2352.76,443.161 
  "/>
<polyline clip-path="url(#clip052)" style="stroke:#000000; stroke-linecap:round; stroke-linejoin:round; stroke-width:2; stroke-opacity:0.1; fill:none" points="
  175.445,185.659 2352.76,185.659 
  "/>
<polyline clip-path="url(#clip050)" style="stroke:#000000; stroke-linecap:round; stroke-linejoin:round; stroke-width:4; stroke-opacity:1; fill:none" points="
  175.445,1410.9 175.445,123.472 
  "/>
<polyline clip-path="url(#clip050)" style="stroke:#000000; stroke-linecap:round; stroke-linejoin:round; stroke-width:4; stroke-opacity:1; fill:none" points="
  175.445,1215.67 194.343,1215.67 
  "/>
<polyline clip-path="url(#clip050)" style="stroke:#000000; stroke-linecap:round; stroke-linejoin:round; stroke-width:4; stroke-opacity:1; fill:none" points="
  175.445,958.165 194.343,958.165 
  "/>
<polyline clip-path="url(#clip050)" style="stroke:#000000; stroke-linecap:round; stroke-linejoin:round; stroke-width:4; stroke-opacity:1; fill:none" points="
  175.445,700.663 194.343,700.663 
  "/>
<polyline clip-path="url(#clip050)" style="stroke:#000000; stroke-linecap:round; stroke-linejoin:round; stroke-width:4; stroke-opacity:1; fill:none" points="
  175.445,443.161 194.343,443.161 
  "/>
<polyline clip-path="url(#clip050)" style="stroke:#000000; stroke-linecap:round; stroke-linejoin:round; stroke-width:4; stroke-opacity:1; fill:none" points="
  175.445,185.659 194.343,185.659 
  "/>
<path clip-path="url(#clip050)" d="M127.501 1201.47 Q123.89 1201.47 122.061 1205.03 Q120.255 1208.57 120.255 1215.7 Q120.255 1222.81 122.061 1226.37 Q123.89 1229.91 127.501 1229.91 Q131.135 1229.91 132.941 1226.37 Q134.769 1222.81 134.769 1215.7 Q134.769 1208.57 132.941 1205.03 Q131.135 1201.47 127.501 1201.47 M127.501 1197.76 Q133.311 1197.76 136.367 1202.37 Q139.445 1206.95 139.445 1215.7 Q139.445 1224.43 136.367 1229.04 Q133.311 1233.62 127.501 1233.62 Q121.691 1233.62 118.612 1229.04 Q115.556 1224.43 115.556 1215.7 Q115.556 1206.95 118.612 1202.37 Q121.691 1197.76 127.501 1197.76 Z" fill="#000000" fill-rule="evenodd" fill-opacity="1" /><path clip-path="url(#clip050)" d="M123.126 971.51 L139.445 971.51 L139.445 975.445 L117.501 975.445 L117.501 971.51 Q120.163 968.755 124.746 964.126 Q129.353 959.473 130.533 958.13 Q132.779 955.607 133.658 953.871 Q134.561 952.112 134.561 950.422 Q134.561 947.667 132.617 945.931 Q130.695 944.195 127.593 944.195 Q125.394 944.195 122.941 944.959 Q120.51 945.723 117.732 947.274 L117.732 942.552 Q120.556 941.417 123.01 940.839 Q125.464 940.26 127.501 940.26 Q132.871 940.26 136.066 942.945 Q139.26 945.63 139.26 950.121 Q139.26 952.251 138.45 954.172 Q137.663 956.07 135.556 958.663 Q134.978 959.334 131.876 962.552 Q128.774 965.746 123.126 971.51 Z" fill="#000000" fill-rule="evenodd" fill-opacity="1" /><path clip-path="url(#clip050)" d="M129.862 687.457 L118.056 705.906 L129.862 705.906 L129.862 687.457 M128.635 683.383 L134.515 683.383 L134.515 705.906 L139.445 705.906 L139.445 709.795 L134.515 709.795 L134.515 717.943 L129.862 717.943 L129.862 709.795 L114.26 709.795 L114.26 705.281 L128.635 683.383 Z" fill="#000000" fill-rule="evenodd" fill-opacity="1" /><path clip-path="url(#clip050)" d="M127.917 441.298 Q124.769 441.298 122.918 443.45 Q121.089 445.603 121.089 449.353 Q121.089 453.08 122.918 455.256 Q124.769 457.409 127.917 457.409 Q131.066 457.409 132.894 455.256 Q134.746 453.08 134.746 449.353 Q134.746 445.603 132.894 443.45 Q131.066 441.298 127.917 441.298 M137.2 426.645 L137.2 430.904 Q135.441 430.071 133.635 429.631 Q131.853 429.191 130.093 429.191 Q125.464 429.191 123.01 432.316 Q120.58 435.441 120.232 441.76 Q121.598 439.747 123.658 438.682 Q125.718 437.594 128.195 437.594 Q133.404 437.594 136.413 440.765 Q139.445 443.913 139.445 449.353 Q139.445 454.677 136.297 457.895 Q133.149 461.112 127.917 461.112 Q121.922 461.112 118.751 456.529 Q115.58 451.922 115.58 443.196 Q115.58 435.001 119.468 430.14 Q123.357 425.256 129.908 425.256 Q131.667 425.256 133.45 425.603 Q135.255 425.95 137.2 426.645 Z" fill="#000000" fill-rule="evenodd" fill-opacity="1" /><path clip-path="url(#clip050)" d="M127.593 186.527 Q124.26 186.527 122.339 188.309 Q120.441 190.092 120.441 193.217 Q120.441 196.342 122.339 198.124 Q124.26 199.906 127.593 199.906 Q130.927 199.906 132.848 198.124 Q134.769 196.319 134.769 193.217 Q134.769 190.092 132.848 188.309 Q130.95 186.527 127.593 186.527 M122.918 184.536 Q119.908 183.795 118.218 181.735 Q116.552 179.675 116.552 176.712 Q116.552 172.569 119.492 170.161 Q122.455 167.754 127.593 167.754 Q132.755 167.754 135.695 170.161 Q138.635 172.569 138.635 176.712 Q138.635 179.675 136.945 181.735 Q135.279 183.795 132.292 184.536 Q135.672 185.323 137.547 187.615 Q139.445 189.907 139.445 193.217 Q139.445 198.24 136.367 200.925 Q133.311 203.61 127.593 203.61 Q121.876 203.61 118.797 200.925 Q115.742 198.24 115.742 193.217 Q115.742 189.907 117.64 187.615 Q119.538 185.323 122.918 184.536 M121.205 177.152 Q121.205 179.837 122.871 181.342 Q124.561 182.846 127.593 182.846 Q130.603 182.846 132.292 181.342 Q134.005 179.837 134.005 177.152 Q134.005 174.467 132.292 172.962 Q130.603 171.458 127.593 171.458 Q124.561 171.458 122.871 172.962 Q121.205 174.467 121.205 177.152 Z" fill="#000000" fill-rule="evenodd" fill-opacity="1" /><path clip-path="url(#clip050)" d="M41.7242 864.993 Q42.4244 862.925 44.7161 860.983 Q47.0077 859.01 51.0181 857.036 L64.0042 850.511 L64.0042 857.418 L51.8138 863.498 Q47.0395 865.853 45.48 868.081 Q43.9204 870.277 43.9204 874.096 L43.9204 881.099 L64.0042 881.099 L64.0042 887.528 L16.4842 887.528 L16.4842 873.014 Q16.4842 864.866 19.8898 860.856 Q23.2955 856.845 30.1704 856.845 Q34.6582 856.845 37.6183 858.946 Q40.5784 861.015 41.7242 864.993 M21.7677 881.099 L38.6368 881.099 L38.6368 873.014 Q38.6368 868.367 36.5043 866.012 Q34.34 863.625 30.1704 863.625 Q26.0009 863.625 23.9002 866.012 Q21.7677 868.367 21.7677 873.014 L21.7677 881.099 Z" fill="#000000" fill-rule="evenodd" fill-opacity="1" /><path clip-path="url(#clip050)" d="M44.7161 814.927 L47.5806 814.927 L47.5806 841.854 Q53.6281 841.472 56.8109 838.226 Q59.9619 834.947 59.9619 829.123 Q59.9619 825.749 59.1344 822.598 Q58.3069 819.415 56.6518 816.296 L62.1899 816.296 Q63.5267 819.447 64.227 822.757 Q64.9272 826.067 64.9272 829.473 Q64.9272 838.003 59.9619 843 Q54.9967 847.965 46.5303 847.965 Q37.7774 847.965 32.6531 843.255 Q27.4968 838.512 27.4968 830.491 Q27.4968 823.298 32.1438 819.129 Q36.7589 814.927 44.7161 814.927 M42.9973 820.784 Q38.1912 820.847 35.3266 823.489 Q32.4621 826.099 32.4621 830.428 Q32.4621 835.329 35.2312 838.289 Q38.0002 841.218 43.0292 841.663 L42.9973 820.784 Z" fill="#000000" fill-rule="evenodd" fill-opacity="1" /><path clip-path="url(#clip050)" d="M18.2347 799.522 L28.3562 799.522 L28.3562 787.459 L32.9077 787.459 L32.9077 799.522 L52.2594 799.522 Q56.6199 799.522 57.8613 798.345 Q59.1026 797.135 59.1026 793.475 L59.1026 787.459 L64.0042 787.459 L64.0042 793.475 Q64.0042 800.254 61.4897 802.832 Q58.9434 805.41 52.2594 805.41 L32.9077 805.41 L32.9077 809.707 L28.3562 809.707 L28.3562 805.41 L18.2347 805.41 L18.2347 799.522 Z" fill="#000000" fill-rule="evenodd" fill-opacity="1" /><path clip-path="url(#clip050)" d="M49.9359 780.361 L28.3562 780.361 L28.3562 774.505 L49.7131 774.505 Q54.7739 774.505 57.3202 772.532 Q59.8346 770.558 59.8346 766.611 Q59.8346 761.869 56.8109 759.132 Q53.7872 756.363 48.5673 756.363 L28.3562 756.363 L28.3562 750.506 L64.0042 750.506 L64.0042 756.363 L58.5296 756.363 Q61.7762 758.495 63.3676 761.328 Q64.9272 764.129 64.9272 767.853 Q64.9272 773.996 61.1078 777.179 Q57.2883 780.361 49.9359 780.361 M27.4968 765.625 L27.4968 765.625 Z" fill="#000000" fill-rule="evenodd" fill-opacity="1" /><path clip-path="url(#clip050)" d="M33.8307 717.787 Q33.2578 718.773 33.0032 719.951 Q32.7167 721.097 32.7167 722.497 Q32.7167 727.462 35.9632 730.136 Q39.1779 732.778 45.2253 732.778 L64.0042 732.778 L64.0042 738.666 L28.3562 738.666 L28.3562 732.778 L33.8944 732.778 Q30.6479 730.932 29.0883 727.972 Q27.4968 725.012 27.4968 720.778 Q27.4968 720.174 27.5923 719.442 Q27.656 718.71 27.8151 717.818 L33.8307 717.787 Z" fill="#000000" fill-rule="evenodd" fill-opacity="1" /><path clip-path="url(#clip050)" d="M42.4881 683.157 L64.0042 683.157 L64.0042 689.014 L42.679 689.014 Q37.6183 689.014 35.1038 690.987 Q32.5894 692.96 32.5894 696.907 Q32.5894 701.649 35.6131 704.387 Q38.6368 707.124 43.8567 707.124 L64.0042 707.124 L64.0042 713.012 L28.3562 713.012 L28.3562 707.124 L33.8944 707.124 Q30.6797 705.023 29.0883 702.191 Q27.4968 699.326 27.4968 695.602 Q27.4968 689.459 31.3163 686.308 Q35.1038 683.157 42.4881 683.157 Z" fill="#000000" fill-rule="evenodd" fill-opacity="1" /><path clip-path="url(#clip050)" d="M29.4065 648.75 L34.9447 648.75 Q33.6716 651.233 33.035 653.907 Q32.3984 656.58 32.3984 659.445 Q32.3984 663.805 33.7352 666.001 Q35.072 668.166 37.7456 668.166 Q39.7826 668.166 40.9603 666.606 Q42.1061 665.047 43.1565 660.336 L43.6021 658.331 Q44.9389 652.092 47.3897 649.482 Q49.8086 646.841 54.1691 646.841 Q59.1344 646.841 62.0308 650.787 Q64.9272 654.702 64.9272 661.577 Q64.9272 664.442 64.3543 667.561 Q63.8132 670.648 62.6992 674.086 L56.6518 674.086 Q58.3387 670.839 59.198 667.688 Q60.0256 664.537 60.0256 661.45 Q60.0256 657.312 58.6251 655.084 Q57.1929 652.856 54.6147 652.856 Q52.2276 652.856 50.9545 654.48 Q49.6813 656.071 48.5037 661.514 L48.0262 663.551 Q46.8804 668.993 44.5251 671.412 Q42.138 673.831 38.0002 673.831 Q32.9713 673.831 30.2341 670.267 Q27.4968 666.702 27.4968 660.145 Q27.4968 656.899 27.9743 654.034 Q28.4517 651.169 29.4065 648.75 Z" fill="#000000" fill-rule="evenodd" fill-opacity="1" /><path clip-path="url(#clip050)" d="M857.289 18.8205 L857.289 41.5461 L867.578 41.5461 Q873.29 41.5461 876.409 38.5889 Q879.528 35.6318 879.528 30.163 Q879.528 24.7348 876.409 21.7777 Q873.29 18.8205 867.578 18.8205 L857.289 18.8205 M849.106 12.096 L867.578 12.096 Q877.746 12.096 882.931 16.714 Q888.156 21.2916 888.156 30.163 Q888.156 39.1155 882.931 43.6931 Q877.746 48.2706 867.578 48.2706 L857.289 48.2706 L857.289 72.576 L849.106 72.576 L849.106 12.096 Z" fill="#000000" fill-rule="evenodd" fill-opacity="1" /><path clip-path="url(#clip050)" d="M907.317 18.8205 L907.317 41.5461 L917.606 41.5461 Q923.318 41.5461 926.437 38.5889 Q929.557 35.6318 929.557 30.163 Q929.557 24.7348 926.437 21.7777 Q923.318 18.8205 917.606 18.8205 L907.317 18.8205 M899.134 12.096 L917.606 12.096 Q927.774 12.096 932.959 16.714 Q938.185 21.2916 938.185 30.163 Q938.185 39.1155 932.959 43.6931 Q927.774 48.2706 917.606 48.2706 L907.317 48.2706 L907.317 72.576 L899.134 72.576 L899.134 12.096 Z" fill="#000000" fill-rule="evenodd" fill-opacity="1" /><path clip-path="url(#clip050)" d="M973.711 17.6457 Q964.799 17.6457 959.533 24.2892 Q954.308 30.9327 954.308 42.3968 Q954.308 53.8203 959.533 60.4638 Q964.799 67.1073 973.711 67.1073 Q982.623 67.1073 987.809 60.4638 Q993.034 53.8203 993.034 42.3968 Q993.034 30.9327 987.809 24.2892 Q982.623 17.6457 973.711 17.6457 M973.711 11.0023 Q986.431 11.0023 994.047 19.5497 Q1001.66 28.0566 1001.66 42.3968 Q1001.66 56.6965 994.047 65.2439 Q986.431 73.7508 973.711 73.7508 Q960.951 73.7508 953.295 65.2439 Q945.679 56.737 945.679 42.3968 Q945.679 28.0566 953.295 19.5497 Q960.951 11.0023 973.711 11.0023 Z" fill="#000000" fill-rule="evenodd" fill-opacity="1" /><path clip-path="url(#clip050)" d="M1032.45 12.096 L1083.61 12.096 L1083.61 18.9825 L1062.14 18.9825 L1062.14 72.576 L1053.92 72.576 L1053.92 18.9825 L1032.45 18.9825 L1032.45 12.096 Z" fill="#000000" fill-rule="evenodd" fill-opacity="1" /><path clip-path="url(#clip050)" d="M1105.28 34.1734 Q1104.03 33.4443 1102.53 33.1202 Q1101.07 32.7556 1099.29 32.7556 Q1092.97 32.7556 1089.57 36.8875 Q1086.21 40.9789 1086.21 48.6757 L1086.21 72.576 L1078.71 72.576 L1078.71 27.2059 L1086.21 27.2059 L1086.21 34.2544 Q1088.55 30.1225 1092.32 28.1376 Q1096.09 26.1121 1101.48 26.1121 Q1102.25 26.1121 1103.18 26.2337 Q1104.11 26.3147 1105.24 26.5172 L1105.28 34.1734 Z" fill="#000000" fill-rule="evenodd" fill-opacity="1" /><path clip-path="url(#clip050)" d="M1133.72 49.7694 Q1124.69 49.7694 1121.2 51.8354 Q1117.72 53.9013 1117.72 58.8839 Q1117.72 62.8538 1120.31 65.2034 Q1122.95 67.5124 1127.44 67.5124 Q1133.64 67.5124 1137.37 63.1374 Q1141.14 58.7219 1141.14 51.4303 L1141.14 49.7694 L1133.72 49.7694 M1148.59 46.6907 L1148.59 72.576 L1141.14 72.576 L1141.14 65.6895 Q1138.58 69.8214 1134.78 71.8063 Q1130.97 73.7508 1125.46 73.7508 Q1118.49 73.7508 1114.36 69.8619 Q1110.27 65.9325 1110.27 59.3701 Q1110.27 51.7138 1115.37 47.825 Q1120.52 43.9361 1130.68 43.9361 L1141.14 43.9361 L1141.14 43.2069 Q1141.14 38.0623 1137.73 35.2672 Q1134.37 32.4315 1128.25 32.4315 Q1124.36 32.4315 1120.68 33.3632 Q1116.99 34.295 1113.59 36.1584 L1113.59 29.2718 Q1117.68 27.692 1121.53 26.9223 Q1125.38 26.1121 1129.02 26.1121 Q1138.87 26.1121 1143.73 31.2163 Q1148.59 36.3204 1148.59 46.6907 Z" fill="#000000" fill-rule="evenodd" fill-opacity="1" /><path clip-path="url(#clip050)" d="M1163.94 27.2059 L1171.4 27.2059 L1171.4 72.576 L1163.94 72.576 L1163.94 27.2059 M1163.94 9.54393 L1171.4 9.54393 L1171.4 18.9825 L1163.94 18.9825 L1163.94 9.54393 Z" fill="#000000" fill-rule="evenodd" fill-opacity="1" /><path clip-path="url(#clip050)" d="M1224.71 45.1919 L1224.71 72.576 L1217.25 72.576 L1217.25 45.4349 Q1217.25 38.994 1214.74 35.7938 Q1212.23 32.5936 1207.21 32.5936 Q1201.17 32.5936 1197.69 36.4419 Q1194.2 40.2903 1194.2 46.9338 L1194.2 72.576 L1186.71 72.576 L1186.71 27.2059 L1194.2 27.2059 L1194.2 34.2544 Q1196.88 30.163 1200.48 28.1376 Q1204.13 26.1121 1208.87 26.1121 Q1216.68 26.1121 1220.7 30.9732 Q1224.71 35.7938 1224.71 45.1919 Z" fill="#000000" fill-rule="evenodd" fill-opacity="1" /><path clip-path="url(#clip050)" d="M1239.57 27.2059 L1247.03 27.2059 L1247.03 72.576 L1239.57 72.576 L1239.57 27.2059 M1239.57 9.54393 L1247.03 9.54393 L1247.03 18.9825 L1239.57 18.9825 L1239.57 9.54393 Z" fill="#000000" fill-rule="evenodd" fill-opacity="1" /><path clip-path="url(#clip050)" d="M1300.34 45.1919 L1300.34 72.576 L1292.88 72.576 L1292.88 45.4349 Q1292.88 38.994 1290.37 35.7938 Q1287.86 32.5936 1282.84 32.5936 Q1276.8 32.5936 1273.32 36.4419 Q1269.83 40.2903 1269.83 46.9338 L1269.83 72.576 L1262.34 72.576 L1262.34 27.2059 L1269.83 27.2059 L1269.83 34.2544 Q1272.51 30.163 1276.11 28.1376 Q1279.76 26.1121 1284.5 26.1121 Q1292.32 26.1121 1296.33 30.9732 Q1300.34 35.7938 1300.34 45.1919 Z" fill="#000000" fill-rule="evenodd" fill-opacity="1" /><path clip-path="url(#clip050)" d="M1345.06 49.3643 Q1345.06 41.2625 1341.7 36.8065 Q1338.37 32.3505 1332.34 32.3505 Q1326.34 32.3505 1322.98 36.8065 Q1319.66 41.2625 1319.66 49.3643 Q1319.66 57.4256 1322.98 61.8816 Q1326.34 66.3376 1332.34 66.3376 Q1338.37 66.3376 1341.7 61.8816 Q1345.06 57.4256 1345.06 49.3643 M1352.51 66.9452 Q1352.51 78.5308 1347.37 84.1616 Q1342.22 89.8329 1331.61 89.8329 Q1327.68 89.8329 1324.2 89.2252 Q1320.71 88.6581 1317.43 87.4428 L1317.43 80.1917 Q1320.71 81.9741 1323.91 82.8248 Q1327.11 83.6755 1330.43 83.6755 Q1337.77 83.6755 1341.41 79.8271 Q1345.06 76.0193 1345.06 68.282 L1345.06 64.5957 Q1342.75 68.6061 1339.14 70.5911 Q1335.54 72.576 1330.52 72.576 Q1322.17 72.576 1317.07 66.2161 Q1311.96 59.8562 1311.96 49.3643 Q1311.96 38.832 1317.07 32.472 Q1322.17 26.1121 1330.52 26.1121 Q1335.54 26.1121 1339.14 28.0971 Q1342.75 30.082 1345.06 34.0924 L1345.06 27.2059 L1352.51 27.2059 L1352.51 66.9452 Z" fill="#000000" fill-rule="evenodd" fill-opacity="1" /><path clip-path="url(#clip050)" d="M1394.56 12.096 L1402.74 12.096 L1402.74 36.8875 L1432.48 36.8875 L1432.48 12.096 L1440.66 12.096 L1440.66 72.576 L1432.48 72.576 L1432.48 43.7741 L1402.74 43.7741 L1402.74 72.576 L1394.56 72.576 L1394.56 12.096 Z" fill="#000000" fill-rule="evenodd" fill-opacity="1" /><path clip-path="url(#clip050)" d="M1456.62 27.2059 L1464.07 27.2059 L1464.07 72.576 L1456.62 72.576 L1456.62 27.2059 M1456.62 9.54393 L1464.07 9.54393 L1464.07 18.9825 L1456.62 18.9825 L1456.62 9.54393 Z" fill="#000000" fill-rule="evenodd" fill-opacity="1" /><path clip-path="url(#clip050)" d="M1508.59 28.5427 L1508.59 35.5912 Q1505.43 33.9709 1502.03 33.1607 Q1498.63 32.3505 1494.98 32.3505 Q1489.43 32.3505 1486.64 34.0519 Q1483.88 35.7533 1483.88 39.156 Q1483.88 41.7486 1485.87 43.2475 Q1487.85 44.7058 1493.85 46.0426 L1496.4 46.6097 Q1504.34 48.3111 1507.66 51.4303 Q1511.02 54.509 1511.02 60.0587 Q1511.02 66.3781 1506 70.0644 Q1501.02 73.7508 1492.27 73.7508 Q1488.62 73.7508 1484.65 73.0216 Q1480.72 72.3329 1476.35 70.9151 L1476.35 63.2184 Q1480.48 65.3654 1484.49 66.4591 Q1488.5 67.5124 1492.43 67.5124 Q1497.7 67.5124 1500.53 65.73 Q1503.37 63.9071 1503.37 60.6258 Q1503.37 57.5877 1501.3 55.9673 Q1499.28 54.3469 1492.35 52.8481 L1489.76 52.2405 Q1482.83 50.7821 1479.75 47.7845 Q1476.67 44.7463 1476.67 39.4801 Q1476.67 33.0797 1481.21 29.5959 Q1485.75 26.1121 1494.09 26.1121 Q1498.22 26.1121 1501.87 26.7198 Q1505.51 27.3274 1508.59 28.5427 Z" fill="#000000" fill-rule="evenodd" fill-opacity="1" /><path clip-path="url(#clip050)" d="M1530.27 14.324 L1530.27 27.2059 L1545.62 27.2059 L1545.62 32.9987 L1530.27 32.9987 L1530.27 57.6282 Q1530.27 63.1779 1531.76 64.7578 Q1533.3 66.3376 1537.96 66.3376 L1545.62 66.3376 L1545.62 72.576 L1537.96 72.576 Q1529.33 72.576 1526.05 69.3758 Q1522.77 66.1351 1522.77 57.6282 L1522.77 32.9987 L1517.3 32.9987 L1517.3 27.2059 L1522.77 27.2059 L1522.77 14.324 L1530.27 14.324 Z" fill="#000000" fill-rule="evenodd" fill-opacity="1" /><path clip-path="url(#clip050)" d="M1573 32.4315 Q1567.01 32.4315 1563.52 37.1306 Q1560.04 41.7891 1560.04 49.9314 Q1560.04 58.0738 1563.48 62.7728 Q1566.97 67.4314 1573 67.4314 Q1578.96 67.4314 1582.44 62.7323 Q1585.92 58.0333 1585.92 49.9314 Q1585.92 41.8701 1582.44 37.1711 Q1578.96 32.4315 1573 32.4315 M1573 26.1121 Q1582.72 26.1121 1588.27 32.4315 Q1593.82 38.7509 1593.82 49.9314 Q1593.82 61.0714 1588.27 67.4314 Q1582.72 73.7508 1573 73.7508 Q1563.24 73.7508 1557.69 67.4314 Q1552.18 61.0714 1552.18 49.9314 Q1552.18 38.7509 1557.69 32.4315 Q1563.24 26.1121 1573 26.1121 Z" fill="#000000" fill-rule="evenodd" fill-opacity="1" /><path clip-path="url(#clip050)" d="M1632.47 34.1734 Q1631.21 33.4443 1629.71 33.1202 Q1628.26 32.7556 1626.47 32.7556 Q1620.15 32.7556 1616.75 36.8875 Q1613.39 40.9789 1613.39 48.6757 L1613.39 72.576 L1605.9 72.576 L1605.9 27.2059 L1613.39 27.2059 L1613.39 34.2544 Q1615.74 30.1225 1619.51 28.1376 Q1623.27 26.1121 1628.66 26.1121 Q1629.43 26.1121 1630.36 26.2337 Q1631.29 26.3147 1632.43 26.5172 L1632.47 34.1734 Z" fill="#000000" fill-rule="evenodd" fill-opacity="1" /><path clip-path="url(#clip050)" d="M1659.16 76.7889 Q1656.01 84.8907 1653.01 87.3618 Q1650.01 89.8329 1644.99 89.8329 L1639.03 89.8329 L1639.03 83.5945 L1643.41 83.5945 Q1646.49 83.5945 1648.19 82.1361 Q1649.89 80.6778 1651.95 75.2496 L1653.29 71.8468 L1634.94 27.2059 L1642.84 27.2059 L1657.02 62.6918 L1671.2 27.2059 L1679.1 27.2059 L1659.16 76.7889 Z" fill="#000000" fill-rule="evenodd" fill-opacity="1" /><polyline clip-path="url(#clip052)" style="stroke:#009af9; stroke-linecap:round; stroke-linejoin:round; stroke-width:12; stroke-opacity:1; fill:none" points="
  237.067,1033.83 241.184,1030.16 245.3,1026.43 249.416,1022.66 253.533,1018.83 257.649,1014.96 261.765,1011.04 265.882,1007.07 269.998,1003.06 274.115,998.999 
  278.231,994.896 282.347,990.751 286.464,986.564 290.58,982.337 294.696,978.073 298.813,973.771 302.929,969.435 307.045,965.067 311.162,960.667 315.278,956.24 
  319.395,951.786 323.511,947.309 327.627,942.81 331.744,938.293 335.86,933.76 339.976,929.215 344.093,924.659 348.209,920.095 352.325,915.528 356.442,910.96 
  360.558,906.394 364.675,901.833 368.791,897.28 372.907,892.739 377.024,888.213 381.14,883.705 385.256,879.218 389.373,874.755 393.489,870.32 397.605,865.915 
  401.722,861.543 405.838,857.207 409.955,852.909 414.071,848.653 418.187,844.439 422.304,840.272 426.42,836.153 430.536,832.083 434.653,828.064 438.769,824.099 
  442.886,820.187 447.002,816.332 451.118,812.532 455.235,808.79 459.351,805.105 463.467,801.479 467.584,797.911 471.7,794.401 475.816,790.948 479.933,787.554 
  484.049,784.216 488.166,780.935 492.282,777.709 496.398,774.537 500.515,771.419 504.631,768.352 508.747,765.336 512.864,762.369 516.98,759.449 521.096,756.576 
  525.213,753.746 529.329,750.959 533.446,748.212 537.562,745.504 541.678,742.832 545.795,740.196 549.911,737.593 554.027,735.02 558.144,732.478 562.26,729.962 
  566.376,727.473 570.493,725.007 574.609,722.564 578.726,720.141 582.842,717.737 586.958,715.349 591.075,712.978 595.191,710.62 599.307,708.275 603.424,705.942 
  607.54,703.618 611.657,701.303 615.773,698.994 619.889,696.693 624.006,694.396 628.122,692.103 632.238,689.813 636.355,687.526 640.471,685.239 644.587,682.954 
  648.704,680.668 652.82,678.382 656.937,676.095 661.053,673.806 665.169,671.516 669.286,669.224 673.402,666.929 677.518,664.633 681.635,662.334 685.751,660.033 
  689.867,657.731 693.984,655.427 698.1,653.122 702.217,650.817 706.333,648.511 710.449,646.206 714.566,643.903 718.682,641.602 722.798,639.305 726.915,637.011 
  731.031,634.722 735.148,632.44 739.264,630.165 743.38,627.899 747.497,625.643 751.613,623.397 755.729,621.165 759.846,618.946 763.962,616.742 768.078,614.554 
  772.195,612.385 776.311,610.235 780.428,608.105 784.544,605.997 788.66,603.913 792.777,601.853 796.893,599.82 801.009,597.813 805.126,595.836 809.242,593.887 
  813.358,591.97 817.475,590.084 821.591,588.231 825.708,586.412 829.824,584.628 833.94,582.879 838.057,581.167 842.173,579.491 846.289,577.853 850.406,576.252 
  854.522,574.69 858.638,573.167 862.755,571.682 866.871,570.237 870.988,568.83 875.104,567.462 879.22,566.132 883.337,564.841 887.453,563.587 891.569,562.37 
  895.686,561.19 899.802,560.045 903.919,558.935 908.035,557.859 912.151,556.815 916.268,555.802 920.384,554.82 924.5,553.865 928.617,552.938 932.733,552.035 
  936.849,551.156 940.966,550.299 945.082,549.461 949.199,548.64 953.315,547.836 957.431,547.045 961.548,546.265 965.664,545.495 969.78,544.732 973.897,543.974 
  978.013,543.219 982.129,542.465 986.246,541.71 990.362,540.951 994.479,540.187 998.595,539.416 1002.71,538.637 1006.83,537.846 1010.94,537.044 1015.06,536.228 
  1019.18,535.397 1023.29,534.55 1027.41,533.686 1031.53,532.803 1035.64,531.902 1039.76,530.982 1043.87,530.041 1047.99,529.081 1052.11,528.1 1056.22,527.099 
  1060.34,526.078 1064.46,525.038 1068.57,523.978 1072.69,522.901 1076.81,521.806 1080.92,520.694 1085.04,519.567 1089.15,518.426 1093.27,517.272 1097.39,516.106 
  1101.5,514.931 1105.62,513.747 1109.74,512.556 1113.85,511.361 1117.97,510.162 1122.09,508.961 1126.2,507.761 1130.32,506.563 1134.44,505.369 1138.55,504.18 
  1142.67,502.999 1146.78,501.826 1150.9,500.665 1155.02,499.516 1159.13,498.381 1163.25,497.261 1167.37,496.158 1171.48,495.074 1175.6,494.009 1179.72,492.966 
  1183.83,491.944 1187.95,490.945 1192.06,489.971 1196.18,489.021 1200.3,488.098 1204.41,487.201 1208.53,486.331 1212.65,485.489 1216.76,484.676 1220.88,483.891 
  1225,483.136 1229.11,482.41 1233.23,481.714 1237.34,481.048 1241.46,480.412 1245.58,479.806 1249.69,479.23 1253.81,478.684 1257.93,478.167 1262.04,477.681 
  1266.16,477.223 1270.28,476.795 1274.39,476.395 1278.51,476.023 1282.62,475.678 1286.74,475.361 1290.86,475.07 1294.97,474.804 1299.09,474.563 1303.21,474.347 
  1307.32,474.153 1311.44,473.981 1315.56,473.831 1319.67,473.7 1323.79,473.589 1327.9,473.495 1332.02,473.417 1336.14,473.354 1340.25,473.305 1344.37,473.268 
  1348.49,473.242 1352.6,473.225 1356.72,473.215 1360.84,473.212 1364.95,473.213 1369.07,473.217 1373.18,473.223 1377.3,473.227 1381.42,473.23 1385.53,473.23 
  1389.65,473.225 1393.77,473.213 1397.88,473.193 1402,473.164 1406.12,473.125 1410.23,473.074 1414.35,473.01 1418.46,472.933 1422.58,472.841 1426.7,472.734 
  1430.81,472.611 1434.93,472.472 1439.05,472.317 1443.16,472.144 1447.28,471.955 1451.4,471.75 1455.51,471.528 1459.63,471.291 1463.74,471.039 1467.86,470.772 
  1471.98,470.493 1476.09,470.201 1480.21,469.899 1484.33,469.587 1488.44,469.268 1492.56,468.943 1496.68,468.613 1500.79,468.281 1504.91,467.948 1509.02,467.617 
  1513.14,467.29 1517.26,466.969 1521.37,466.655 1525.49,466.352 1529.61,466.061 1533.72,465.784 1537.84,465.524 1541.96,465.283 1546.07,465.062 1550.19,464.864 
  1554.3,464.689 1558.42,464.541 1562.54,464.42 1566.65,464.328 1570.77,464.266 1574.89,464.236 1579,464.237 1583.12,464.272 1587.24,464.34 1591.35,464.442 
  1595.47,464.579 1599.58,464.749 1603.7,464.954 1607.82,465.193 1611.93,465.464 1616.05,465.769 1620.17,466.105 1624.28,466.472 1628.4,466.868 1632.52,467.292 
  1636.63,467.743 1640.75,468.218 1644.86,468.717 1648.98,469.237 1653.1,469.776 1657.21,470.331 1661.33,470.902 1665.45,471.485 1669.56,472.079 1673.68,472.68 
  1677.8,473.287 1681.91,473.896 1686.03,474.506 1690.14,475.114 1694.26,475.717 1698.38,476.313 1702.49,476.9 1706.61,477.475 1710.73,478.036 1714.84,478.581 
  1718.96,479.106 1723.08,479.612 1727.19,480.094 1731.31,480.552 1735.42,480.983 1739.54,481.386 1743.66,481.759 1747.77,482.1 1751.89,482.409 1756.01,482.684 
  1760.12,482.923 1764.24,483.126 1768.36,483.293 1772.47,483.421 1776.59,483.512 1780.7,483.563 1784.82,483.575 1788.94,483.548 1793.05,483.481 1797.17,483.376 
  1801.29,483.231 1805.4,483.047 1809.52,482.825 1813.64,482.565 1817.75,482.267 1821.87,481.934 1825.98,481.565 1830.1,481.161 1834.22,480.723 1838.33,480.253 
  1842.45,479.752 1846.57,479.22 1850.68,478.66 1854.8,478.072 1858.92,477.459 1863.03,476.821 1867.15,476.159 1871.26,475.476 1875.38,474.773 1879.5,474.052 
  1883.61,473.314 1887.73,472.561 1891.85,471.794 1895.96,471.015 1900.08,470.225 1904.2,469.427 1908.31,468.622 1912.43,467.811 1916.54,466.996 1920.66,466.179 
  1924.78,465.361 1928.89,464.544 1933.01,463.729 1937.13,462.919 1941.24,462.113 1945.36,461.315 1949.48,460.526 1953.59,459.747 1957.71,458.979 1961.82,458.224 
  1965.94,457.483 1970.06,456.758 1974.17,456.05 1978.29,455.361 1982.41,454.691 1986.52,454.042 1990.64,453.414 1994.76,452.81 1998.87,452.23 2002.99,451.675 
  2007.1,451.146 2011.22,450.644 2015.34,450.169 2019.45,449.722 2023.57,449.304 2027.69,448.915 2031.8,448.556 2035.92,448.227 2040.04,447.927 2044.15,447.658 
  2048.27,447.419 2052.38,447.209 2056.5,447.03 2060.62,446.879 2064.73,446.758 2068.85,446.665 2072.97,446.6 2077.08,446.561 2081.2,446.549 2085.32,446.562 
  2089.43,446.6 2093.55,446.661 2097.66,446.744 2101.78,446.848 2105.9,446.972 2110.01,447.115 2114.13,447.275 2118.25,447.451 2122.36,447.643 2126.48,447.848 
  2130.6,448.065 2134.71,448.293 2138.83,448.531 2142.94,448.777 2147.06,449.031 2151.18,449.291 2155.29,449.556 2159.41,449.825 2163.53,450.097 2167.64,450.371 
  2171.76,450.646 2175.88,450.921 2179.99,451.195 2184.11,451.468 2188.22,451.739 2192.34,452.007 2196.46,452.272 2200.57,452.533 2204.69,452.79 2208.81,453.042 
  2212.92,453.29 2217.04,453.532 2221.16,453.769 2225.27,454 2229.39,454.226 2233.5,454.446 2237.62,454.66 2241.74,454.868 2245.85,455.07 2249.97,455.267 
  2254.09,455.458 2258.2,455.643 2262.32,455.823 2266.44,455.998 2270.55,456.168 2274.67,456.332 2278.78,456.493 2282.9,456.648 2287.02,456.8 2291.13,456.947 
  
  "/>
<polyline clip-path="url(#clip052)" style="stroke:#e26f46; stroke-linecap:round; stroke-linejoin:round; stroke-width:4; stroke-opacity:0.5; fill:none" points="
  237.067,1138.42 241.184,1310.08 245.3,1374.46 249.416,1237.13 253.533,1202.79 257.649,1340.13 261.765,992.499 265.882,1074.04 269.998,1280.04 274.115,1207.08 
  278.231,1280.04 282.347,1082.62 286.464,1361.58 290.58,923.831 294.696,1202.79 298.813,1104.08 302.929,1052.58 307.045,825.122 311.162,996.79 315.278,923.831 
  319.395,833.706 323.511,1039.71 327.627,863.748 331.744,996.79 335.86,910.956 339.976,906.665 344.093,1009.67 348.209,803.664 352.325,812.247 356.442,829.414 
  360.558,996.79 364.675,709.246 368.791,1082.62 372.907,769.33 377.024,1164.17 381.14,765.039 385.256,876.623 389.373,1052.58 393.489,752.163 397.605,868.039 
  401.722,932.415 405.838,674.913 409.955,876.623 414.071,975.332 418.187,760.747 422.304,910.956 426.42,498.953 430.536,670.621 434.653,880.914 438.769,790.789 
  442.886,747.872 447.002,833.706 451.118,803.664 455.235,906.665 459.351,683.496 463.467,627.704 467.584,404.536 471.7,726.413 475.816,859.456 479.933,988.207 
  484.049,786.497 488.166,674.913 492.282,348.744 496.398,790.789 500.515,790.789 504.631,730.705 508.747,713.538 512.864,945.29 516.98,1001.08 521.096,859.456 
  525.213,704.955 529.329,812.247 533.446,803.664 537.562,902.373 541.678,597.662 545.795,524.703 549.911,893.79 554.027,829.414 558.144,855.164 562.26,722.122 
  566.376,885.206 570.493,623.412 574.609,627.704 578.726,627.704 582.842,692.08 586.958,584.787 591.075,739.288 595.191,739.288 599.307,910.956 603.424,679.205 
  607.54,486.078 611.657,490.37 615.773,799.372 619.889,795.08 624.006,597.662 628.122,610.537 632.238,559.037 636.355,743.58 640.471,726.413 644.587,473.203 
  648.704,666.329 652.82,619.121 656.937,537.578 661.053,700.663 665.169,777.914 669.286,773.622 673.402,666.329 677.518,829.414 681.635,803.664 685.751,1052.58 
  689.867,666.329 693.984,769.33 698.1,653.454 702.217,636.287 706.333,704.955 710.449,636.287 714.566,374.494 718.682,507.536 722.798,769.33 726.915,653.454 
  731.031,709.246 735.148,700.663 739.264,589.079 743.38,666.329 747.497,563.329 751.613,408.827 755.729,623.412 759.846,717.83 763.962,649.163 768.078,516.12 
  772.195,563.329 776.311,430.286 780.428,563.329 784.544,653.454 788.66,417.411 792.777,589.079 796.893,430.286 801.009,799.372 805.126,687.788 809.242,640.579 
  813.358,653.454 817.475,623.412 821.591,486.078 825.708,816.539 829.824,601.954 833.94,666.329 838.057,280.076 842.173,425.994 846.289,387.369 850.406,571.912 
  854.522,640.579 858.638,619.121 862.755,589.079 866.871,704.955 870.988,674.913 875.104,619.121 879.22,606.246 883.337,533.287 887.453,481.786 891.569,511.828 
  895.686,327.285 899.802,520.412 903.919,589.079 908.035,666.329 912.151,619.121 916.268,447.453 920.384,855.164 924.5,464.619 928.617,443.161 932.733,374.494 
  936.849,318.702 940.966,443.161 945.082,374.494 949.199,537.578 953.315,627.704 957.431,443.161 961.548,593.37 965.664,692.08 969.78,576.204 973.897,348.744 
  978.013,593.37 982.129,812.247 986.246,425.994 990.362,318.702 994.479,464.619 998.595,812.247 1002.71,593.37 1006.83,541.87 1010.94,730.705 1015.06,752.163 
  1019.18,451.744 1023.29,696.371 1027.41,610.537 1031.53,421.702 1035.64,387.369 1039.76,297.243 1043.87,219.992 1047.99,837.997 1052.11,644.871 1056.22,726.413 
  1060.34,563.329 1064.46,687.788 1068.57,494.661 1072.69,417.411 1076.81,516.12 1080.92,709.246 1085.04,730.705 1089.15,395.952 1093.27,473.203 1097.39,383.077 
  1101.5,417.411 1105.62,438.869 1109.74,593.37 1113.85,825.122 1117.97,576.204 1122.09,494.661 1126.2,434.578 1130.32,451.744 1134.44,576.204 1138.55,331.577 
  1142.67,395.952 1146.78,503.245 1150.9,589.079 1155.02,614.829 1159.13,219.992 1163.25,374.494 1167.37,271.493 1171.48,473.203 1175.6,550.453 1179.72,395.952 
  1183.83,481.786 1187.95,447.453 1192.06,760.747 1196.18,528.995 1200.3,524.703 1204.41,653.454 1208.53,516.12 1212.65,224.284 1216.76,340.16 1220.88,434.578 
  1225,627.704 1229.11,327.285 1233.23,365.91 1237.34,713.538 1241.46,473.203 1245.58,365.91 1249.69,589.079 1253.81,576.204 1257.93,554.745 1262.04,498.953 
  1266.16,580.495 1270.28,511.828 1274.39,498.953 1278.51,417.411 1282.62,262.909 1286.74,456.036 1290.86,374.494 1294.97,391.66 1299.09,387.369 1303.21,481.786 
  1307.32,473.203 1311.44,404.536 1315.56,460.328 1319.67,593.37 1323.79,533.287 1327.9,327.285 1332.02,511.828 1336.14,430.286 1340.25,430.286 1344.37,606.246 
  1348.49,709.246 1352.6,468.911 1356.72,318.702 1360.84,232.868 1364.95,404.536 1369.07,344.452 1373.18,374.494 1377.3,717.83 1381.42,434.578 1385.53,383.077 
  1389.65,498.953 1393.77,700.663 1397.88,430.286 1402,850.873 1406.12,353.035 1410.23,331.577 1414.35,636.287 1418.46,404.536 1422.58,365.91 1426.7,417.411 
  1430.81,400.244 1434.93,494.661 1439.05,438.869 1443.16,357.327 1447.28,365.91 1451.4,653.454 1455.51,687.788 1459.63,533.287 1463.74,460.328 1467.86,743.58 
  1471.98,365.91 1476.09,460.328 1480.21,713.538 1484.33,468.911 1488.44,357.327 1492.56,567.62 1496.68,696.371 1500.79,481.786 1504.91,365.91 1509.02,185.659 
  1513.14,473.203 1517.26,331.577 1521.37,503.245 1525.49,430.286 1529.61,580.495 1533.72,627.704 1537.84,520.412 1541.96,451.744 1546.07,683.496 1550.19,421.702 
  1554.3,395.952 1558.42,623.412 1562.54,280.076 1566.65,413.119 1570.77,318.702 1574.89,159.909 1579,194.242 1583.12,245.743 1587.24,614.829 1591.35,692.08 
  1595.47,202.826 1599.58,310.118 1603.7,589.079 1607.82,275.785 1611.93,456.036 1616.05,610.537 1620.17,438.869 1624.28,395.952 1628.4,275.785 1632.52,696.371 
  1636.63,245.743 1640.75,739.288 1644.86,468.911 1648.98,322.993 1653.1,623.412 1657.21,769.33 1661.33,747.872 1665.45,460.328 1669.56,421.702 1673.68,314.41 
  1677.8,344.452 1681.91,305.826 1686.03,425.994 1690.14,559.037 1694.26,541.87 1698.38,297.243 1702.49,743.58 1706.61,408.827 1710.73,486.078 1714.84,473.203 
  1718.96,370.202 1723.08,481.786 1727.19,297.243 1731.31,662.038 1735.42,460.328 1739.54,511.828 1743.66,404.536 1747.77,601.954 1751.89,610.537 1756.01,576.204 
  1760.12,417.411 1764.24,357.327 1768.36,696.371 1772.47,460.328 1776.59,528.995 1780.7,340.16 1784.82,357.327 1788.94,567.62 1793.05,683.496 1797.17,361.619 
  1801.29,696.371 1805.4,451.744 1809.52,619.121 1813.64,670.621 1817.75,486.078 1821.87,576.204 1825.98,443.161 1830.1,438.869 1834.22,567.62 1838.33,335.868 
  1842.45,567.62 1846.57,511.828 1850.68,460.328 1854.8,726.413 1858.92,288.66 1863.03,520.412 1867.15,417.411 1871.26,258.618 1875.38,357.327 1879.5,468.911 
  1883.61,580.495 1887.73,503.245 1891.85,486.078 1895.96,524.703 1900.08,297.243 1904.2,623.412 1908.31,473.203 1912.43,421.702 1916.54,348.744 1920.66,473.203 
  1924.78,395.952 1928.89,438.869 1933.01,318.702 1937.13,589.079 1941.24,533.287 1945.36,417.411 1949.48,417.411 1953.59,516.12 1957.71,468.911 1961.82,662.038 
  1965.94,464.619 1970.06,567.62 1974.17,451.744 1978.29,417.411 1982.41,494.661 1986.52,687.788 1990.64,374.494 1994.76,533.287 1998.87,322.993 2002.99,387.369 
  2007.1,425.994 2011.22,494.661 2015.34,215.701 2019.45,537.578 2023.57,237.159 2027.69,430.286 2031.8,580.495 2035.92,335.868 2040.04,438.869 2044.15,408.827 
  2048.27,417.411 2052.38,370.202 2056.5,383.077 2060.62,395.952 2064.73,318.702 2068.85,417.411 2072.97,456.036 2077.08,640.579 2081.2,395.952 2085.32,374.494 
  2089.43,563.329 2093.55,597.662 2097.66,383.077 2101.78,451.744 2105.9,215.701 2110.01,267.201 2114.13,395.952 2118.25,644.871 2122.36,318.702 2126.48,447.453 
  2130.6,374.494 2134.71,795.08 2138.83,413.119 2142.94,374.494 2147.06,250.034 2151.18,687.788 2155.29,258.618 2159.41,580.495 2163.53,430.286 2167.64,322.993 
  2171.76,803.664 2175.88,601.954 2179.99,503.245 2184.11,408.827 2188.22,430.286 2192.34,503.245 2196.46,447.453 2200.57,322.993 2204.69,546.162 2208.81,417.411 
  2212.92,443.161 2217.04,477.495 2221.16,563.329 2225.27,374.494 2229.39,310.118 2233.5,456.036 2237.62,387.369 2241.74,584.787 2245.85,391.66 2249.97,451.744 
  2254.09,481.786 2258.2,288.66 2262.32,451.744 2266.44,623.412 2270.55,237.159 2274.67,460.328 2278.78,537.578 2282.9,790.789 2287.02,378.785 2291.13,395.952 
  
  "/>
<path clip-path="url(#clip050)" d="
M1827.7 1367.98 L2280.18 1367.98 L2280.18 1212.46 L1827.7 1212.46  Z
  " fill="#ffffff" fill-rule="evenodd" fill-opacity="1"/>
<polyline clip-path="url(#clip050)" style="stroke:#000000; stroke-linecap:round; stroke-linejoin:round; stroke-width:4; stroke-opacity:1; fill:none" points="
  1827.7,1367.98 2280.18,1367.98 2280.18,1212.46 1827.7,1212.46 1827.7,1367.98 
  "/>
<polyline clip-path="url(#clip050)" style="stroke:#009af9; stroke-linecap:round; stroke-linejoin:round; stroke-width:12; stroke-opacity:1; fill:none" points="
  1851.9,1264.3 1997.05,1264.3 
  "/>
<path clip-path="url(#clip050)" d="M2043.49 1248.16 L2043.49 1252.72 Q2040.83 1251.44 2038.46 1250.82 Q2036.1 1250.19 2033.9 1250.19 Q2030.08 1250.19 2028 1251.68 Q2025.94 1253.16 2025.94 1255.89 Q2025.94 1258.18 2027.31 1259.36 Q2028.7 1260.52 2032.54 1261.24 L2035.36 1261.81 Q2040.59 1262.81 2043.07 1265.33 Q2045.57 1267.83 2045.57 1272.05 Q2045.57 1277.07 2042.19 1279.66 Q2038.83 1282.25 2032.33 1282.25 Q2029.88 1282.25 2027.1 1281.7 Q2024.34 1281.14 2021.38 1280.05 L2021.38 1275.24 Q2024.23 1276.84 2026.96 1277.65 Q2029.69 1278.46 2032.33 1278.46 Q2036.33 1278.46 2038.51 1276.88 Q2040.69 1275.31 2040.69 1272.39 Q2040.69 1269.85 2039.11 1268.41 Q2037.56 1266.98 2034 1266.26 L2031.15 1265.7 Q2025.92 1264.66 2023.58 1262.44 Q2021.24 1260.22 2021.24 1256.26 Q2021.24 1251.68 2024.46 1249.04 Q2027.7 1246.4 2033.37 1246.4 Q2035.8 1246.4 2038.33 1246.84 Q2040.85 1247.28 2043.49 1248.16 Z" fill="#000000" fill-rule="evenodd" fill-opacity="1" /><path clip-path="url(#clip050)" d="M2072.86 1260.63 Q2074.46 1257.76 2076.68 1256.4 Q2078.9 1255.03 2081.91 1255.03 Q2085.96 1255.03 2088.16 1257.88 Q2090.36 1260.7 2090.36 1265.93 L2090.36 1281.58 L2086.08 1281.58 L2086.08 1266.07 Q2086.08 1262.35 2084.76 1260.54 Q2083.44 1258.74 2080.73 1258.74 Q2077.42 1258.74 2075.5 1260.93 Q2073.58 1263.13 2073.58 1266.93 L2073.58 1281.58 L2069.3 1281.58 L2069.3 1266.07 Q2069.3 1262.32 2067.98 1260.54 Q2066.66 1258.74 2063.9 1258.74 Q2060.64 1258.74 2058.72 1260.96 Q2056.8 1263.16 2056.8 1266.93 L2056.8 1281.58 L2052.52 1281.58 L2052.52 1255.66 L2056.8 1255.66 L2056.8 1259.68 Q2058.26 1257.3 2060.29 1256.17 Q2062.33 1255.03 2065.13 1255.03 Q2067.96 1255.03 2069.92 1256.47 Q2071.91 1257.9 2072.86 1260.63 Z" fill="#000000" fill-rule="evenodd" fill-opacity="1" /><path clip-path="url(#clip050)" d="M2108.9 1258.64 Q2105.48 1258.64 2103.49 1261.33 Q2101.5 1263.99 2101.5 1268.64 Q2101.5 1273.3 2103.46 1275.98 Q2105.45 1278.64 2108.9 1278.64 Q2112.31 1278.64 2114.3 1275.96 Q2116.29 1273.27 2116.29 1268.64 Q2116.29 1264.04 2114.3 1261.35 Q2112.31 1258.64 2108.9 1258.64 M2108.9 1255.03 Q2114.46 1255.03 2117.63 1258.64 Q2120.8 1262.25 2120.8 1268.64 Q2120.8 1275.01 2117.63 1278.64 Q2114.46 1282.25 2108.9 1282.25 Q2103.33 1282.25 2100.15 1278.64 Q2097.01 1275.01 2097.01 1268.64 Q2097.01 1262.25 2100.15 1258.64 Q2103.33 1255.03 2108.9 1255.03 Z" fill="#000000" fill-rule="evenodd" fill-opacity="1" /><path clip-path="url(#clip050)" d="M2137.91 1258.64 Q2134.48 1258.64 2132.49 1261.33 Q2130.5 1263.99 2130.5 1268.64 Q2130.5 1273.3 2132.47 1275.98 Q2134.46 1278.64 2137.91 1278.64 Q2141.31 1278.64 2143.3 1275.96 Q2145.29 1273.27 2145.29 1268.64 Q2145.29 1264.04 2143.3 1261.35 Q2141.31 1258.64 2137.91 1258.64 M2137.91 1255.03 Q2143.46 1255.03 2146.64 1258.64 Q2149.81 1262.25 2149.81 1268.64 Q2149.81 1275.01 2146.64 1278.64 Q2143.46 1282.25 2137.91 1282.25 Q2132.33 1282.25 2129.16 1278.64 Q2126.01 1275.01 2126.01 1268.64 Q2126.01 1262.25 2129.16 1258.64 Q2132.33 1255.03 2137.91 1255.03 Z" fill="#000000" fill-rule="evenodd" fill-opacity="1" /><path clip-path="url(#clip050)" d="M2161.08 1248.3 L2161.08 1255.66 L2169.85 1255.66 L2169.85 1258.97 L2161.08 1258.97 L2161.08 1273.04 Q2161.08 1276.21 2161.94 1277.11 Q2162.82 1278.02 2165.48 1278.02 L2169.85 1278.02 L2169.85 1281.58 L2165.48 1281.58 Q2160.55 1281.58 2158.67 1279.75 Q2156.8 1277.9 2156.8 1273.04 L2156.8 1258.97 L2153.67 1258.97 L2153.67 1255.66 L2156.8 1255.66 L2156.8 1248.3 L2161.08 1248.3 Z" fill="#000000" fill-rule="evenodd" fill-opacity="1" /><path clip-path="url(#clip050)" d="M2197.01 1265.93 L2197.01 1281.58 L2192.75 1281.58 L2192.75 1266.07 Q2192.75 1262.39 2191.31 1260.56 Q2189.88 1258.74 2187.01 1258.74 Q2183.56 1258.74 2181.57 1260.93 Q2179.57 1263.13 2179.57 1266.93 L2179.57 1281.58 L2175.29 1281.58 L2175.29 1245.56 L2179.57 1245.56 L2179.57 1259.68 Q2181.1 1257.35 2183.16 1256.19 Q2185.25 1255.03 2187.95 1255.03 Q2192.42 1255.03 2194.71 1257.81 Q2197.01 1260.56 2197.01 1265.93 Z" fill="#000000" fill-rule="evenodd" fill-opacity="1" /><path clip-path="url(#clip050)" d="M2227.68 1267.55 L2227.68 1269.64 L2208.09 1269.64 Q2208.37 1274.04 2210.73 1276.35 Q2213.12 1278.64 2217.35 1278.64 Q2219.81 1278.64 2222.1 1278.04 Q2224.41 1277.44 2226.68 1276.24 L2226.68 1280.26 Q2224.39 1281.24 2221.98 1281.74 Q2219.57 1282.25 2217.1 1282.25 Q2210.89 1282.25 2207.26 1278.64 Q2203.65 1275.03 2203.65 1268.87 Q2203.65 1262.51 2207.07 1258.78 Q2210.52 1255.03 2216.36 1255.03 Q2221.59 1255.03 2224.62 1258.41 Q2227.68 1261.77 2227.68 1267.55 M2223.42 1266.3 Q2223.37 1262.81 2221.45 1260.73 Q2219.55 1258.64 2216.4 1258.64 Q2212.84 1258.64 2210.69 1260.66 Q2208.56 1262.67 2208.23 1266.33 L2223.42 1266.3 Z" fill="#000000" fill-rule="evenodd" fill-opacity="1" /><path clip-path="url(#clip050)" d="M2251.73 1259.59 L2251.73 1245.56 L2255.99 1245.56 L2255.99 1281.58 L2251.73 1281.58 L2251.73 1277.69 Q2250.38 1280.01 2248.32 1281.14 Q2246.29 1282.25 2243.42 1282.25 Q2238.72 1282.25 2235.76 1278.5 Q2232.82 1274.75 2232.82 1268.64 Q2232.82 1262.53 2235.76 1258.78 Q2238.72 1255.03 2243.42 1255.03 Q2246.29 1255.03 2248.32 1256.17 Q2250.38 1257.28 2251.73 1259.59 M2237.21 1268.64 Q2237.21 1273.34 2239.13 1276.03 Q2241.08 1278.69 2244.46 1278.69 Q2247.84 1278.69 2249.78 1276.03 Q2251.73 1273.34 2251.73 1268.64 Q2251.73 1263.94 2249.78 1261.28 Q2247.84 1258.6 2244.46 1258.6 Q2241.08 1258.6 2239.13 1261.28 Q2237.21 1263.94 2237.21 1268.64 Z" fill="#000000" fill-rule="evenodd" fill-opacity="1" /><polyline clip-path="url(#clip050)" style="stroke:#e26f46; stroke-linecap:round; stroke-linejoin:round; stroke-width:4; stroke-opacity:0.5; fill:none" points="
  1851.9,1316.14 1997.05,1316.14 
  "/>
<path clip-path="url(#clip050)" d="M2037.63 1317.22 Q2039.14 1317.73 2040.55 1319.39 Q2041.98 1321.06 2043.42 1323.98 L2048.16 1333.42 L2043.14 1333.42 L2038.72 1324.56 Q2037.01 1321.08 2035.39 1319.95 Q2033.79 1318.82 2031.01 1318.82 L2025.92 1318.82 L2025.92 1333.42 L2021.24 1333.42 L2021.24 1298.86 L2031.8 1298.86 Q2037.72 1298.86 2040.64 1301.34 Q2043.56 1303.82 2043.56 1308.82 Q2043.56 1312.08 2042.03 1314.23 Q2040.52 1316.39 2037.63 1317.22 M2025.92 1302.71 L2025.92 1314.97 L2031.8 1314.97 Q2035.18 1314.97 2036.89 1313.42 Q2038.63 1311.85 2038.63 1308.82 Q2038.63 1305.78 2036.89 1304.26 Q2035.18 1302.71 2031.8 1302.71 L2025.92 1302.71 Z" fill="#000000" fill-rule="evenodd" fill-opacity="1" /><path clip-path="url(#clip050)" d="M2064.74 1320.39 Q2059.58 1320.39 2057.58 1321.57 Q2055.59 1322.75 2055.59 1325.6 Q2055.59 1327.87 2057.08 1329.21 Q2058.58 1330.53 2061.15 1330.53 Q2064.69 1330.53 2066.82 1328.03 Q2068.97 1325.51 2068.97 1321.34 L2068.97 1320.39 L2064.74 1320.39 M2073.23 1318.63 L2073.23 1333.42 L2068.97 1333.42 L2068.97 1329.49 Q2067.52 1331.85 2065.34 1332.98 Q2063.16 1334.09 2060.02 1334.09 Q2056.03 1334.09 2053.67 1331.87 Q2051.33 1329.63 2051.33 1325.88 Q2051.33 1321.5 2054.25 1319.28 Q2057.19 1317.06 2063 1317.06 L2068.97 1317.06 L2068.97 1316.64 Q2068.97 1313.7 2067.03 1312.1 Q2065.11 1310.48 2061.61 1310.48 Q2059.39 1310.48 2057.28 1311.02 Q2055.18 1311.55 2053.23 1312.61 L2053.23 1308.68 Q2055.57 1307.77 2057.77 1307.33 Q2059.97 1306.87 2062.05 1306.87 Q2067.68 1306.87 2070.46 1309.79 Q2073.23 1312.71 2073.23 1318.63 Z" fill="#000000" fill-rule="evenodd" fill-opacity="1" /><path clip-path="url(#clip050)" d="M2079.53 1307.5 L2083.79 1307.5 L2089.11 1327.73 L2094.41 1307.5 L2099.44 1307.5 L2104.76 1327.73 L2110.06 1307.5 L2114.32 1307.5 L2107.54 1333.42 L2102.52 1333.42 L2096.94 1312.17 L2091.33 1333.42 L2086.31 1333.42 L2079.53 1307.5 Z" fill="#000000" fill-rule="evenodd" fill-opacity="1" /></svg>
