<?xml version="1.0" encoding="utf-8"?>
<svg xmlns="http://www.w3.org/2000/svg" xmlns:xlink="http://www.w3.org/1999/xlink" width="600" height="400" viewBox="0 0 2400 1600">
<defs>
  <clipPath id="clip600">
    <rect x="0" y="0" width="2400" height="1600"/>
  </clipPath>
</defs>
<path clip-path="url(#clip600)" d="
M0 1600 L2400 1600 L2400 0 L0 0  Z
  " fill="#ffffff" fill-rule="evenodd" fill-opacity="1"/>
<defs>
  <clipPath id="clip601">
    <rect x="480" y="0" width="1681" height="1600"/>
  </clipPath>
</defs>
<path clip-path="url(#clip600)" d="
M112.177 1486.45 L2352.76 1486.45 L2352.76 123.472 L112.177 123.472  Z
  " fill="#ffffff" fill-rule="evenodd" fill-opacity="1"/>
<defs>
  <clipPath id="clip602">
    <rect x="112" y="123" width="2242" height="1364"/>
  </clipPath>
</defs>
<polyline clip-path="url(#clip602)" style="stroke:#000000; stroke-linecap:round; stroke-linejoin:round; stroke-width:2; stroke-opacity:0.1; fill:none" points="
  171.354,1486.45 171.354,123.472 
  "/>
<polyline clip-path="url(#clip602)" style="stroke:#000000; stroke-linecap:round; stroke-linejoin:round; stroke-width:2; stroke-opacity:0.1; fill:none" points="
  594.952,1486.45 594.952,123.472 
  "/>
<polyline clip-path="url(#clip602)" style="stroke:#000000; stroke-linecap:round; stroke-linejoin:round; stroke-width:2; stroke-opacity:0.1; fill:none" points="
  1018.55,1486.45 1018.55,123.472 
  "/>
<polyline clip-path="url(#clip602)" style="stroke:#000000; stroke-linecap:round; stroke-linejoin:round; stroke-width:2; stroke-opacity:0.1; fill:none" points="
  1442.15,1486.45 1442.15,123.472 
  "/>
<polyline clip-path="url(#clip602)" style="stroke:#000000; stroke-linecap:round; stroke-linejoin:round; stroke-width:2; stroke-opacity:0.1; fill:none" points="
  1865.75,1486.45 1865.75,123.472 
  "/>
<polyline clip-path="url(#clip602)" style="stroke:#000000; stroke-linecap:round; stroke-linejoin:round; stroke-width:2; stroke-opacity:0.1; fill:none" points="
  2289.34,1486.45 2289.34,123.472 
  "/>
<polyline clip-path="url(#clip600)" style="stroke:#000000; stroke-linecap:round; stroke-linejoin:round; stroke-width:4; stroke-opacity:1; fill:none" points="
  112.177,1486.45 2352.76,1486.45 
  "/>
<polyline clip-path="url(#clip600)" style="stroke:#000000; stroke-linecap:round; stroke-linejoin:round; stroke-width:4; stroke-opacity:1; fill:none" points="
  171.354,1486.45 171.354,1467.55 
  "/>
<polyline clip-path="url(#clip600)" style="stroke:#000000; stroke-linecap:round; stroke-linejoin:round; stroke-width:4; stroke-opacity:1; fill:none" points="
  594.952,1486.45 594.952,1467.55 
  "/>
<polyline clip-path="url(#clip600)" style="stroke:#000000; stroke-linecap:round; stroke-linejoin:round; stroke-width:4; stroke-opacity:1; fill:none" points="
  1018.55,1486.45 1018.55,1467.55 
  "/>
<polyline clip-path="url(#clip600)" style="stroke:#000000; stroke-linecap:round; stroke-linejoin:round; stroke-width:4; stroke-opacity:1; fill:none" points="
  1442.15,1486.45 1442.15,1467.55 
  "/>
<polyline clip-path="url(#clip600)" style="stroke:#000000; stroke-linecap:round; stroke-linejoin:round; stroke-width:4; stroke-opacity:1; fill:none" points="
  1865.75,1486.45 1865.75,1467.55 
  "/>
<polyline clip-path="url(#clip600)" style="stroke:#000000; stroke-linecap:round; stroke-linejoin:round; stroke-width:4; stroke-opacity:1; fill:none" points="
  2289.34,1486.45 2289.34,1467.55 
  "/>
<path clip-path="url(#clip600)" d="M171.354 1517.37 Q167.743 1517.37 165.914 1520.93 Q164.108 1524.47 164.108 1531.6 Q164.108 1538.71 165.914 1542.27 Q167.743 1545.82 171.354 1545.82 Q174.988 1545.82 176.794 1542.27 Q178.622 1538.71 178.622 1531.6 Q178.622 1524.47 176.794 1520.93 Q174.988 1517.37 171.354 1517.37 M171.354 1513.66 Q177.164 1513.66 180.219 1518.27 Q183.298 1522.85 183.298 1531.6 Q183.298 1540.33 180.219 1544.94 Q177.164 1549.52 171.354 1549.52 Q165.544 1549.52 162.465 1544.94 Q159.409 1540.33 159.409 1531.6 Q159.409 1522.85 162.465 1518.27 Q165.544 1513.66 171.354 1513.66 Z" fill="#000000" fill-rule="evenodd" fill-opacity="1" /><path clip-path="url(#clip600)" d="M554.558 1544.91 L562.197 1544.91 L562.197 1518.55 L553.887 1520.21 L553.887 1515.95 L562.151 1514.29 L566.827 1514.29 L566.827 1544.91 L574.466 1544.91 L574.466 1548.85 L554.558 1548.85 L554.558 1544.91 Z" fill="#000000" fill-rule="evenodd" fill-opacity="1" /><path clip-path="url(#clip600)" d="M593.91 1517.37 Q590.299 1517.37 588.47 1520.93 Q586.665 1524.47 586.665 1531.6 Q586.665 1538.71 588.47 1542.27 Q590.299 1545.82 593.91 1545.82 Q597.544 1545.82 599.35 1542.27 Q601.179 1538.71 601.179 1531.6 Q601.179 1524.47 599.35 1520.93 Q597.544 1517.37 593.91 1517.37 M593.91 1513.66 Q599.72 1513.66 602.776 1518.27 Q605.854 1522.85 605.854 1531.6 Q605.854 1540.33 602.776 1544.94 Q599.72 1549.52 593.91 1549.52 Q588.1 1549.52 585.021 1544.94 Q581.966 1540.33 581.966 1531.6 Q581.966 1522.85 585.021 1518.27 Q588.1 1513.66 593.91 1513.66 Z" fill="#000000" fill-rule="evenodd" fill-opacity="1" /><path clip-path="url(#clip600)" d="M624.072 1517.37 Q620.461 1517.37 618.632 1520.93 Q616.827 1524.47 616.827 1531.6 Q616.827 1538.71 618.632 1542.27 Q620.461 1545.82 624.072 1545.82 Q627.706 1545.82 629.512 1542.27 Q631.34 1538.71 631.34 1531.6 Q631.34 1524.47 629.512 1520.93 Q627.706 1517.37 624.072 1517.37 M624.072 1513.66 Q629.882 1513.66 632.938 1518.27 Q636.016 1522.85 636.016 1531.6 Q636.016 1540.33 632.938 1544.94 Q629.882 1549.52 624.072 1549.52 Q618.262 1549.52 615.183 1544.94 Q612.128 1540.33 612.128 1531.6 Q612.128 1522.85 615.183 1518.27 Q618.262 1513.66 624.072 1513.66 Z" fill="#000000" fill-rule="evenodd" fill-opacity="1" /><path clip-path="url(#clip600)" d="M982.242 1544.91 L998.561 1544.91 L998.561 1548.85 L976.617 1548.85 L976.617 1544.91 Q979.279 1542.16 983.862 1537.53 Q988.469 1532.88 989.649 1531.53 Q991.895 1529.01 992.774 1527.27 Q993.677 1525.51 993.677 1523.82 Q993.677 1521.07 991.733 1519.33 Q989.811 1517.6 986.709 1517.6 Q984.51 1517.6 982.057 1518.36 Q979.626 1519.13 976.848 1520.68 L976.848 1515.95 Q979.672 1514.82 982.126 1514.24 Q984.58 1513.66 986.617 1513.66 Q991.987 1513.66 995.182 1516.35 Q998.376 1519.03 998.376 1523.52 Q998.376 1525.65 997.566 1527.57 Q996.779 1529.47 994.672 1532.07 Q994.094 1532.74 990.992 1535.95 Q987.89 1539.15 982.242 1544.91 Z" fill="#000000" fill-rule="evenodd" fill-opacity="1" /><path clip-path="url(#clip600)" d="M1018.38 1517.37 Q1014.76 1517.37 1012.94 1520.93 Q1011.13 1524.47 1011.13 1531.6 Q1011.13 1538.71 1012.94 1542.27 Q1014.76 1545.82 1018.38 1545.82 Q1022.01 1545.82 1023.82 1542.27 Q1025.64 1538.71 1025.64 1531.6 Q1025.64 1524.47 1023.82 1520.93 Q1022.01 1517.37 1018.38 1517.37 M1018.38 1513.66 Q1024.19 1513.66 1027.24 1518.27 Q1030.32 1522.85 1030.32 1531.6 Q1030.32 1540.33 1027.24 1544.94 Q1024.19 1549.52 1018.38 1549.52 Q1012.57 1549.52 1009.49 1544.94 Q1006.43 1540.33 1006.43 1531.6 Q1006.43 1522.85 1009.49 1518.27 Q1012.57 1513.66 1018.38 1513.66 Z" fill="#000000" fill-rule="evenodd" fill-opacity="1" /><path clip-path="url(#clip600)" d="M1048.54 1517.37 Q1044.93 1517.37 1043.1 1520.93 Q1041.29 1524.47 1041.29 1531.6 Q1041.29 1538.71 1043.1 1542.27 Q1044.93 1545.82 1048.54 1545.82 Q1052.17 1545.82 1053.98 1542.27 Q1055.81 1538.71 1055.81 1531.6 Q1055.81 1524.47 1053.98 1520.93 Q1052.17 1517.37 1048.54 1517.37 M1048.54 1513.66 Q1054.35 1513.66 1057.4 1518.27 Q1060.48 1522.85 1060.48 1531.6 Q1060.48 1540.33 1057.4 1544.94 Q1054.35 1549.52 1048.54 1549.52 Q1042.73 1549.52 1039.65 1544.94 Q1036.59 1540.33 1036.59 1531.6 Q1036.59 1522.85 1039.65 1518.27 Q1042.73 1513.66 1048.54 1513.66 Z" fill="#000000" fill-rule="evenodd" fill-opacity="1" /><path clip-path="url(#clip600)" d="M1415.91 1530.21 Q1419.27 1530.93 1421.14 1533.2 Q1423.04 1535.47 1423.04 1538.8 Q1423.04 1543.92 1419.52 1546.72 Q1416 1549.52 1409.52 1549.52 Q1407.34 1549.52 1405.03 1549.08 Q1402.74 1548.66 1400.28 1547.81 L1400.28 1543.29 Q1402.23 1544.43 1404.54 1545.01 Q1406.86 1545.58 1409.38 1545.58 Q1413.78 1545.58 1416.07 1543.85 Q1418.39 1542.11 1418.39 1538.8 Q1418.39 1535.75 1416.23 1534.03 Q1414.1 1532.3 1410.28 1532.3 L1406.26 1532.3 L1406.26 1528.45 L1410.47 1528.45 Q1413.92 1528.45 1415.75 1527.09 Q1417.58 1525.7 1417.58 1523.11 Q1417.58 1520.45 1415.68 1519.03 Q1413.8 1517.6 1410.28 1517.6 Q1408.36 1517.6 1406.16 1518.01 Q1403.96 1518.43 1401.33 1519.31 L1401.33 1515.14 Q1403.99 1514.4 1406.3 1514.03 Q1408.64 1513.66 1410.7 1513.66 Q1416.02 1513.66 1419.13 1516.09 Q1422.23 1518.5 1422.23 1522.62 Q1422.23 1525.49 1420.59 1527.48 Q1418.94 1529.45 1415.91 1530.21 Z" fill="#000000" fill-rule="evenodd" fill-opacity="1" /><path clip-path="url(#clip600)" d="M1441.9 1517.37 Q1438.29 1517.37 1436.46 1520.93 Q1434.66 1524.47 1434.66 1531.6 Q1434.66 1538.71 1436.46 1542.27 Q1438.29 1545.82 1441.9 1545.82 Q1445.54 1545.82 1447.34 1542.27 Q1449.17 1538.71 1449.17 1531.6 Q1449.17 1524.47 1447.34 1520.93 Q1445.54 1517.37 1441.9 1517.37 M1441.9 1513.66 Q1447.71 1513.66 1450.77 1518.27 Q1453.85 1522.85 1453.85 1531.6 Q1453.85 1540.33 1450.77 1544.94 Q1447.71 1549.52 1441.9 1549.52 Q1436.09 1549.52 1433.02 1544.94 Q1429.96 1540.33 1429.96 1531.6 Q1429.96 1522.85 1433.02 1518.27 Q1436.09 1513.66 1441.9 1513.66 Z" fill="#000000" fill-rule="evenodd" fill-opacity="1" /><path clip-path="url(#clip600)" d="M1472.07 1517.37 Q1468.46 1517.37 1466.63 1520.93 Q1464.82 1524.47 1464.82 1531.6 Q1464.82 1538.71 1466.63 1542.27 Q1468.46 1545.82 1472.07 1545.82 Q1475.7 1545.82 1477.51 1542.27 Q1479.33 1538.71 1479.33 1531.6 Q1479.33 1524.47 1477.51 1520.93 Q1475.7 1517.37 1472.07 1517.37 M1472.07 1513.66 Q1477.88 1513.66 1480.93 1518.27 Q1484.01 1522.85 1484.01 1531.6 Q1484.01 1540.33 1480.93 1544.94 Q1477.88 1549.52 1472.07 1549.52 Q1466.26 1549.52 1463.18 1544.94 Q1460.12 1540.33 1460.12 1531.6 Q1460.12 1522.85 1463.18 1518.27 Q1466.26 1513.66 1472.07 1513.66 Z" fill="#000000" fill-rule="evenodd" fill-opacity="1" /><path clip-path="url(#clip600)" d="M1838.84 1518.36 L1827.03 1536.81 L1838.84 1536.81 L1838.84 1518.36 M1837.61 1514.29 L1843.49 1514.29 L1843.49 1536.81 L1848.42 1536.81 L1848.42 1540.7 L1843.49 1540.7 L1843.49 1548.85 L1838.84 1548.85 L1838.84 1540.7 L1823.23 1540.7 L1823.23 1536.19 L1837.61 1514.29 Z" fill="#000000" fill-rule="evenodd" fill-opacity="1" /><path clip-path="url(#clip600)" d="M1866.15 1517.37 Q1862.54 1517.37 1860.71 1520.93 Q1858.91 1524.47 1858.91 1531.6 Q1858.91 1538.71 1860.71 1542.27 Q1862.54 1545.82 1866.15 1545.82 Q1869.78 1545.82 1871.59 1542.27 Q1873.42 1538.71 1873.42 1531.6 Q1873.42 1524.47 1871.59 1520.93 Q1869.78 1517.37 1866.15 1517.37 M1866.15 1513.66 Q1871.96 1513.66 1875.02 1518.27 Q1878.09 1522.85 1878.09 1531.6 Q1878.09 1540.33 1875.02 1544.94 Q1871.96 1549.52 1866.15 1549.52 Q1860.34 1549.52 1857.26 1544.94 Q1854.21 1540.33 1854.21 1531.6 Q1854.21 1522.85 1857.26 1518.27 Q1860.34 1513.66 1866.15 1513.66 Z" fill="#000000" fill-rule="evenodd" fill-opacity="1" /><path clip-path="url(#clip600)" d="M1896.31 1517.37 Q1892.7 1517.37 1890.87 1520.93 Q1889.07 1524.47 1889.07 1531.6 Q1889.07 1538.71 1890.87 1542.27 Q1892.7 1545.82 1896.31 1545.82 Q1899.95 1545.82 1901.75 1542.27 Q1903.58 1538.71 1903.58 1531.6 Q1903.58 1524.47 1901.75 1520.93 Q1899.95 1517.37 1896.31 1517.37 M1896.31 1513.66 Q1902.12 1513.66 1905.18 1518.27 Q1908.26 1522.85 1908.26 1531.6 Q1908.26 1540.33 1905.18 1544.94 Q1902.12 1549.52 1896.31 1549.52 Q1890.5 1549.52 1887.42 1544.94 Q1884.37 1540.33 1884.37 1531.6 Q1884.37 1522.85 1887.42 1518.27 Q1890.5 1513.66 1896.31 1513.66 Z" fill="#000000" fill-rule="evenodd" fill-opacity="1" /><path clip-path="url(#clip600)" d="M2248.96 1514.29 L2267.32 1514.29 L2267.32 1518.22 L2253.24 1518.22 L2253.24 1526.7 Q2254.26 1526.35 2255.28 1526.19 Q2256.3 1526 2257.32 1526 Q2263.11 1526 2266.48 1529.17 Q2269.86 1532.34 2269.86 1537.76 Q2269.86 1543.34 2266.39 1546.44 Q2262.92 1549.52 2256.6 1549.52 Q2254.42 1549.52 2252.16 1549.15 Q2249.91 1548.78 2247.5 1548.04 L2247.5 1543.34 Q2249.59 1544.47 2251.81 1545.03 Q2254.03 1545.58 2256.51 1545.58 Q2260.51 1545.58 2262.85 1543.48 Q2265.19 1541.37 2265.19 1537.76 Q2265.19 1534.15 2262.85 1532.04 Q2260.51 1529.94 2256.51 1529.94 Q2254.63 1529.94 2252.76 1530.35 Q2250.91 1530.77 2248.96 1531.65 L2248.96 1514.29 Z" fill="#000000" fill-rule="evenodd" fill-opacity="1" /><path clip-path="url(#clip600)" d="M2289.08 1517.37 Q2285.47 1517.37 2283.64 1520.93 Q2281.83 1524.47 2281.83 1531.6 Q2281.83 1538.71 2283.64 1542.27 Q2285.47 1545.82 2289.08 1545.82 Q2292.71 1545.82 2294.52 1542.27 Q2296.35 1538.71 2296.35 1531.6 Q2296.35 1524.47 2294.52 1520.93 Q2292.71 1517.37 2289.08 1517.37 M2289.08 1513.66 Q2294.89 1513.66 2297.94 1518.27 Q2301.02 1522.85 2301.02 1531.6 Q2301.02 1540.33 2297.94 1544.94 Q2294.89 1549.52 2289.08 1549.52 Q2283.27 1549.52 2280.19 1544.94 Q2277.13 1540.33 2277.13 1531.6 Q2277.13 1522.85 2280.19 1518.27 Q2283.27 1513.66 2289.08 1513.66 Z" fill="#000000" fill-rule="evenodd" fill-opacity="1" /><path clip-path="url(#clip600)" d="M2319.24 1517.37 Q2315.63 1517.37 2313.8 1520.93 Q2311.99 1524.47 2311.99 1531.6 Q2311.99 1538.71 2313.8 1542.27 Q2315.63 1545.82 2319.24 1545.82 Q2322.87 1545.82 2324.68 1542.27 Q2326.51 1538.71 2326.51 1531.6 Q2326.51 1524.47 2324.68 1520.93 Q2322.87 1517.37 2319.24 1517.37 M2319.24 1513.66 Q2325.05 1513.66 2328.1 1518.27 Q2331.18 1522.85 2331.18 1531.6 Q2331.18 1540.33 2328.1 1544.94 Q2325.05 1549.52 2319.24 1549.52 Q2313.43 1549.52 2310.35 1544.94 Q2307.29 1540.33 2307.29 1531.6 Q2307.29 1522.85 2310.35 1518.27 Q2313.43 1513.66 2319.24 1513.66 Z" fill="#000000" fill-rule="evenodd" fill-opacity="1" /><polyline clip-path="url(#clip602)" style="stroke:#000000; stroke-linecap:round; stroke-linejoin:round; stroke-width:2; stroke-opacity:0.1; fill:none" points="
  112.177,1274.55 2352.76,1274.55 
  "/>
<polyline clip-path="url(#clip602)" style="stroke:#000000; stroke-linecap:round; stroke-linejoin:round; stroke-width:2; stroke-opacity:0.1; fill:none" points="
  112.177,1032.7 2352.76,1032.7 
  "/>
<polyline clip-path="url(#clip602)" style="stroke:#000000; stroke-linecap:round; stroke-linejoin:round; stroke-width:2; stroke-opacity:0.1; fill:none" points="
  112.177,790.852 2352.76,790.852 
  "/>
<polyline clip-path="url(#clip602)" style="stroke:#000000; stroke-linecap:round; stroke-linejoin:round; stroke-width:2; stroke-opacity:0.1; fill:none" points="
  112.177,549.004 2352.76,549.004 
  "/>
<polyline clip-path="url(#clip602)" style="stroke:#000000; stroke-linecap:round; stroke-linejoin:round; stroke-width:2; stroke-opacity:0.1; fill:none" points="
  112.177,307.156 2352.76,307.156 
  "/>
<polyline clip-path="url(#clip600)" style="stroke:#000000; stroke-linecap:round; stroke-linejoin:round; stroke-width:4; stroke-opacity:1; fill:none" points="
  112.177,1486.45 112.177,123.472 
  "/>
<polyline clip-path="url(#clip600)" style="stroke:#000000; stroke-linecap:round; stroke-linejoin:round; stroke-width:4; stroke-opacity:1; fill:none" points="
  112.177,1274.55 131.075,1274.55 
  "/>
<polyline clip-path="url(#clip600)" style="stroke:#000000; stroke-linecap:round; stroke-linejoin:round; stroke-width:4; stroke-opacity:1; fill:none" points="
  112.177,1032.7 131.075,1032.7 
  "/>
<polyline clip-path="url(#clip600)" style="stroke:#000000; stroke-linecap:round; stroke-linejoin:round; stroke-width:4; stroke-opacity:1; fill:none" points="
  112.177,790.852 131.075,790.852 
  "/>
<polyline clip-path="url(#clip600)" style="stroke:#000000; stroke-linecap:round; stroke-linejoin:round; stroke-width:4; stroke-opacity:1; fill:none" points="
  112.177,549.004 131.075,549.004 
  "/>
<polyline clip-path="url(#clip600)" style="stroke:#000000; stroke-linecap:round; stroke-linejoin:round; stroke-width:4; stroke-opacity:1; fill:none" points="
  112.177,307.156 131.075,307.156 
  "/>
<path clip-path="url(#clip600)" d="M64.2328 1260.35 Q60.6217 1260.35 58.793 1263.91 Q56.9875 1267.45 56.9875 1274.58 Q56.9875 1281.69 58.793 1285.25 Q60.6217 1288.8 64.2328 1288.8 Q67.867 1288.8 69.6726 1285.25 Q71.5013 1281.69 71.5013 1274.58 Q71.5013 1267.45 69.6726 1263.91 Q67.867 1260.35 64.2328 1260.35 M64.2328 1256.64 Q70.0429 1256.64 73.0985 1261.25 Q76.1772 1265.83 76.1772 1274.58 Q76.1772 1283.31 73.0985 1287.92 Q70.0429 1292.5 64.2328 1292.5 Q58.4226 1292.5 55.344 1287.92 Q52.2884 1283.31 52.2884 1274.58 Q52.2884 1265.83 55.344 1261.25 Q58.4226 1256.64 64.2328 1256.64 Z" fill="#000000" fill-rule="evenodd" fill-opacity="1" /><path clip-path="url(#clip600)" d="M59.8578 1046.05 L76.1772 1046.05 L76.1772 1049.98 L54.2328 1049.98 L54.2328 1046.05 Q56.8949 1043.29 61.4782 1038.66 Q66.0846 1034.01 67.2652 1032.67 Q69.5105 1030.14 70.3902 1028.41 Q71.2929 1026.65 71.2929 1024.96 Q71.2929 1022.2 69.3485 1020.47 Q67.4272 1018.73 64.3254 1018.73 Q62.1263 1018.73 59.6726 1019.49 Q57.2421 1020.26 54.4643 1021.81 L54.4643 1017.09 Q57.2884 1015.95 59.7421 1015.37 Q62.1958 1014.8 64.2328 1014.8 Q69.6031 1014.8 72.7976 1017.48 Q75.992 1020.17 75.992 1024.66 Q75.992 1026.79 75.1818 1028.71 Q74.3948 1030.61 72.2883 1033.2 Q71.7096 1033.87 68.6078 1037.09 Q65.5059 1040.28 59.8578 1046.05 Z" fill="#000000" fill-rule="evenodd" fill-opacity="1" /><path clip-path="url(#clip600)" d="M66.5939 777.646 L54.7884 796.095 L66.5939 796.095 L66.5939 777.646 M65.367 773.572 L71.2466 773.572 L71.2466 796.095 L76.1772 796.095 L76.1772 799.984 L71.2466 799.984 L71.2466 808.132 L66.5939 808.132 L66.5939 799.984 L50.9921 799.984 L50.9921 795.47 L65.367 773.572 Z" fill="#000000" fill-rule="evenodd" fill-opacity="1" /><path clip-path="url(#clip600)" d="M64.6495 547.141 Q61.5013 547.141 59.6495 549.293 Q57.8208 551.446 57.8208 555.196 Q57.8208 558.923 59.6495 561.099 Q61.5013 563.252 64.6495 563.252 Q67.7976 563.252 69.6263 561.099 Q71.4781 558.923 71.4781 555.196 Q71.4781 551.446 69.6263 549.293 Q67.7976 547.141 64.6495 547.141 M73.9318 532.488 L73.9318 536.747 Q72.1726 535.914 70.367 535.474 Q68.5846 535.034 66.8254 535.034 Q62.1958 535.034 59.7421 538.159 Q57.3115 541.284 56.9643 547.604 Q58.33 545.59 60.3902 544.525 Q62.4504 543.437 64.9272 543.437 Q70.1355 543.437 73.1448 546.608 Q76.1772 549.756 76.1772 555.196 Q76.1772 560.52 73.029 563.738 Q69.8809 566.955 64.6495 566.955 Q58.6541 566.955 55.4828 562.372 Q52.3116 557.766 52.3116 549.039 Q52.3116 540.844 56.2004 535.983 Q60.0893 531.099 66.6402 531.099 Q68.3994 531.099 70.1818 531.446 Q71.9874 531.793 73.9318 532.488 Z" fill="#000000" fill-rule="evenodd" fill-opacity="1" /><path clip-path="url(#clip600)" d="M64.3254 308.024 Q60.9921 308.024 59.0708 309.806 Q57.1726 311.589 57.1726 314.714 Q57.1726 317.839 59.0708 319.621 Q60.9921 321.403 64.3254 321.403 Q67.6587 321.403 69.58 319.621 Q71.5013 317.815 71.5013 314.714 Q71.5013 311.589 69.58 309.806 Q67.6819 308.024 64.3254 308.024 M59.6495 306.033 Q56.6402 305.292 54.9504 303.232 Q53.2838 301.172 53.2838 298.209 Q53.2838 294.066 56.2236 291.658 Q59.1865 289.251 64.3254 289.251 Q69.4874 289.251 72.4272 291.658 Q75.367 294.066 75.367 298.209 Q75.367 301.172 73.6772 303.232 Q72.0105 305.292 69.0244 306.033 Q72.404 306.82 74.279 309.112 Q76.1772 311.403 76.1772 314.714 Q76.1772 319.737 73.0985 322.422 Q70.0429 325.107 64.3254 325.107 Q58.6078 325.107 55.5291 322.422 Q52.4736 319.737 52.4736 314.714 Q52.4736 311.403 54.3717 309.112 Q56.2699 306.82 59.6495 306.033 M57.9365 298.649 Q57.9365 301.334 59.6032 302.839 Q61.293 304.343 64.3254 304.343 Q67.3346 304.343 69.0244 302.839 Q70.7374 301.334 70.7374 298.649 Q70.7374 295.964 69.0244 294.459 Q67.3346 292.954 64.3254 292.954 Q61.293 292.954 59.6032 294.459 Q57.9365 295.964 57.9365 298.649 Z" fill="#000000" fill-rule="evenodd" fill-opacity="1" /><path clip-path="url(#clip600)" d="M916.091 18.8205 L916.091 41.5461 L926.38 41.5461 Q932.092 41.5461 935.211 38.5889 Q938.33 35.6318 938.33 30.163 Q938.33 24.7348 935.211 21.7777 Q932.092 18.8205 926.38 18.8205 L916.091 18.8205 M907.908 12.096 L926.38 12.096 Q936.548 12.096 941.733 16.714 Q946.959 21.2916 946.959 30.163 Q946.959 39.1155 941.733 43.6931 Q936.548 48.2706 926.38 48.2706 L916.091 48.2706 L916.091 72.576 L907.908 72.576 L907.908 12.096 Z" fill="#000000" fill-rule="evenodd" fill-opacity="1" /><path clip-path="url(#clip600)" d="M966.12 18.8205 L966.12 41.5461 L976.409 41.5461 Q982.121 41.5461 985.24 38.5889 Q988.359 35.6318 988.359 30.163 Q988.359 24.7348 985.24 21.7777 Q982.121 18.8205 976.409 18.8205 L966.12 18.8205 M957.937 12.096 L976.409 12.096 Q986.577 12.096 991.762 16.714 Q996.987 21.2916 996.987 30.163 Q996.987 39.1155 991.762 43.6931 Q986.577 48.2706 976.409 48.2706 L966.12 48.2706 L966.12 72.576 L957.937 72.576 L957.937 12.096 Z" fill="#000000" fill-rule="evenodd" fill-opacity="1" /><path clip-path="url(#clip600)" d="M1032.51 17.6457 Q1023.6 17.6457 1018.34 24.2892 Q1013.11 30.9327 1013.11 42.3968 Q1013.11 53.8203 1018.34 60.4638 Q1023.6 67.1073 1032.51 67.1073 Q1041.43 67.1073 1046.61 60.4638 Q1051.84 53.8203 1051.84 42.3968 Q1051.84 30.9327 1046.61 24.2892 Q1041.43 17.6457 1032.51 17.6457 M1032.51 11.0023 Q1045.23 11.0023 1052.85 19.5497 Q1060.47 28.0566 1060.47 42.3968 Q1060.47 56.6965 1052.85 65.2439 Q1045.23 73.7508 1032.51 73.7508 Q1019.75 73.7508 1012.1 65.2439 Q1004.48 56.737 1004.48 42.3968 Q1004.48 28.0566 1012.1 19.5497 Q1019.75 11.0023 1032.51 11.0023 Z" fill="#000000" fill-rule="evenodd" fill-opacity="1" /><path clip-path="url(#clip600)" d="M1140.88 63.9476 L1140.88 47.7034 L1127.51 47.7034 L1127.51 40.9789 L1148.98 40.9789 L1148.98 66.9452 Q1144.24 70.3075 1138.53 72.0494 Q1132.81 73.7508 1126.33 73.7508 Q1112.15 73.7508 1104.13 65.4869 Q1096.15 57.1826 1096.15 42.3968 Q1096.15 27.5705 1104.13 19.3066 Q1112.15 11.0023 1126.33 11.0023 Q1132.25 11.0023 1137.55 12.4606 Q1142.9 13.9189 1147.4 16.7545 L1147.4 25.464 Q1142.86 21.6156 1137.76 19.6712 Q1132.65 17.7268 1127.02 17.7268 Q1115.92 17.7268 1110.33 23.9246 Q1104.78 30.1225 1104.78 42.3968 Q1104.78 54.6305 1110.33 60.8284 Q1115.92 67.0263 1127.02 67.0263 Q1131.36 67.0263 1134.76 66.2971 Q1138.16 65.5274 1140.88 63.9476 Z" fill="#000000" fill-rule="evenodd" fill-opacity="1" /><path clip-path="url(#clip600)" d="M1158.54 12.096 L1166.8 12.096 L1179.52 63.2184 L1192.2 12.096 L1201.4 12.096 L1214.12 63.2184 L1226.8 12.096 L1235.1 12.096 L1219.91 72.576 L1209.62 72.576 L1196.86 20.0763 L1183.98 72.576 L1173.69 72.576 L1158.54 12.096 Z" fill="#000000" fill-rule="evenodd" fill-opacity="1" /><path clip-path="url(#clip600)" d="M1298.29 34.1734 Q1297.04 33.4443 1295.54 33.1202 Q1294.08 32.7556 1292.3 32.7556 Q1285.98 32.7556 1282.58 36.8875 Q1279.21 40.9789 1279.21 48.6757 L1279.21 72.576 L1271.72 72.576 L1271.72 27.2059 L1279.21 27.2059 L1279.21 34.2544 Q1281.56 30.1225 1285.33 28.1376 Q1289.1 26.1121 1294.49 26.1121 Q1295.26 26.1121 1296.19 26.2337 Q1297.12 26.3147 1298.25 26.5172 L1298.29 34.1734 Z" fill="#000000" fill-rule="evenodd" fill-opacity="1" /><path clip-path="url(#clip600)" d="M1343.1 48.0275 L1343.1 51.6733 L1308.83 51.6733 Q1309.31 59.3701 1313.44 63.421 Q1317.62 67.4314 1325.03 67.4314 Q1329.32 67.4314 1333.33 66.3781 Q1337.38 65.3249 1341.35 63.2184 L1341.35 70.267 Q1337.34 71.9684 1333.13 72.8596 Q1328.92 73.7508 1324.58 73.7508 Q1313.73 73.7508 1307.37 67.4314 Q1301.05 61.1119 1301.05 50.3365 Q1301.05 39.1965 1307.04 32.6746 Q1313.08 26.1121 1323.29 26.1121 Q1332.44 26.1121 1337.75 32.0264 Q1343.1 37.9003 1343.1 48.0275 M1335.64 45.84 Q1335.56 39.7232 1332.2 36.0774 Q1328.88 32.4315 1323.37 32.4315 Q1317.13 32.4315 1313.36 35.9558 Q1309.64 39.4801 1309.07 45.8805 L1335.64 45.84 Z" fill="#000000" fill-rule="evenodd" fill-opacity="1" /><path clip-path="url(#clip600)" d="M1362.7 14.324 L1362.7 27.2059 L1378.06 27.2059 L1378.06 32.9987 L1362.7 32.9987 L1362.7 57.6282 Q1362.7 63.1779 1364.2 64.7578 Q1365.74 66.3376 1370.4 66.3376 L1378.06 66.3376 L1378.06 72.576 L1370.4 72.576 Q1361.77 72.576 1358.49 69.3758 Q1355.21 66.1351 1355.21 57.6282 L1355.21 32.9987 L1349.74 32.9987 L1349.74 27.2059 L1355.21 27.2059 L1355.21 14.324 L1362.7 14.324 Z" fill="#000000" fill-rule="evenodd" fill-opacity="1" /><path clip-path="url(#clip600)" d="M1387.09 54.671 L1387.09 27.2059 L1394.54 27.2059 L1394.54 54.3874 Q1394.54 60.8284 1397.05 64.0691 Q1399.57 67.2693 1404.59 67.2693 Q1410.63 67.2693 1414.11 63.421 Q1417.63 59.5726 1417.63 52.9291 L1417.63 27.2059 L1425.09 27.2059 L1425.09 72.576 L1417.63 72.576 L1417.63 65.6084 Q1414.92 69.7404 1411.31 71.7658 Q1407.75 73.7508 1403.01 73.7508 Q1395.19 73.7508 1391.14 68.8897 Q1387.09 64.0286 1387.09 54.671 M1405.85 26.1121 L1405.85 26.1121 Z" fill="#000000" fill-rule="evenodd" fill-opacity="1" /><path clip-path="url(#clip600)" d="M1466.73 34.1734 Q1465.47 33.4443 1463.98 33.1202 Q1462.52 32.7556 1460.73 32.7556 Q1454.42 32.7556 1451.01 36.8875 Q1447.65 40.9789 1447.65 48.6757 L1447.65 72.576 L1440.16 72.576 L1440.16 27.2059 L1447.65 27.2059 L1447.65 34.2544 Q1450 30.1225 1453.77 28.1376 Q1457.53 26.1121 1462.92 26.1121 Q1463.69 26.1121 1464.62 26.2337 Q1465.56 26.3147 1466.69 26.5172 L1466.73 34.1734 Z" fill="#000000" fill-rule="evenodd" fill-opacity="1" /><path clip-path="url(#clip600)" d="M1510.8 45.1919 L1510.8 72.576 L1503.35 72.576 L1503.35 45.4349 Q1503.35 38.994 1500.84 35.7938 Q1498.33 32.5936 1493.3 32.5936 Q1487.27 32.5936 1483.78 36.4419 Q1480.3 40.2903 1480.3 46.9338 L1480.3 72.576 L1472.81 72.576 L1472.81 27.2059 L1480.3 27.2059 L1480.3 34.2544 Q1482.97 30.163 1486.58 28.1376 Q1490.23 26.1121 1494.97 26.1121 Q1502.78 26.1121 1506.79 30.9732 Q1510.8 35.7938 1510.8 45.1919 Z" fill="#000000" fill-rule="evenodd" fill-opacity="1" /><path clip-path="url(#clip600)" d="M1554.59 28.5427 L1554.59 35.5912 Q1551.43 33.9709 1548.03 33.1607 Q1544.63 32.3505 1540.98 32.3505 Q1535.43 32.3505 1532.64 34.0519 Q1529.88 35.7533 1529.88 39.156 Q1529.88 41.7486 1531.87 43.2475 Q1533.85 44.7058 1539.85 46.0426 L1542.4 46.6097 Q1550.34 48.3111 1553.66 51.4303 Q1557.02 54.509 1557.02 60.0587 Q1557.02 66.3781 1552 70.0644 Q1547.02 73.7508 1538.27 73.7508 Q1534.62 73.7508 1530.65 73.0216 Q1526.72 72.3329 1522.35 70.9151 L1522.35 63.2184 Q1526.48 65.3654 1530.49 66.4591 Q1534.5 67.5124 1538.43 67.5124 Q1543.7 67.5124 1546.53 65.73 Q1549.37 63.9071 1549.37 60.6258 Q1549.37 57.5877 1547.3 55.9673 Q1545.28 54.3469 1538.35 52.8481 L1535.76 52.2405 Q1528.83 50.7821 1525.75 47.7845 Q1522.67 44.7463 1522.67 39.4801 Q1522.67 33.0797 1527.21 29.5959 Q1531.75 26.1121 1540.09 26.1121 Q1544.22 26.1121 1547.87 26.7198 Q1551.52 27.3274 1554.59 28.5427 Z" fill="#000000" fill-rule="evenodd" fill-opacity="1" /><polyline clip-path="url(#clip602)" style="stroke:#009af9; stroke-linecap:round; stroke-linejoin:round; stroke-width:8; stroke-opacity:1; fill:none" points="
  175.59,1225.78 179.826,1209.25 184.062,1190.71 188.298,1172.57 192.534,1162.9 196.77,1164.51 201.006,1180.63 205.242,1171.76 209.478,1138.71 213.714,1161.28 
  217.95,1140.73 222.186,1169.75 226.422,1187.48 230.658,1162.49 234.893,1149.59 239.129,1137.9 243.365,1119.36 247.601,1117.75 251.837,1129.44 256.073,1118.15 
  260.309,1127.02 264.545,1113.32 268.781,1109.69 273.017,1131.86 277.253,1137.1 281.489,1141.94 285.725,1107.27 289.961,1106.06 294.197,1114.93 298.433,1106.06 
  302.669,1113.72 306.905,1098.81 311.141,1091.55 315.377,1062.53 319.613,1075.83 323.849,1062.13 328.085,1078.65 332.321,1055.27 336.557,1048.02 340.793,1049.23 
  345.029,1056.48 349.265,1064.54 353.501,1055.27 357.737,1070.99 361.973,1059.3 366.209,1065.75 370.445,1057.29 374.681,1106.46 378.917,1088.33 383.153,1095.18 
  387.389,1067.37 391.625,1038.75 395.861,1058.5 400.097,1052.45 404.333,1054.87 408.569,1044.79 412.805,1046.41 417.041,993.602 421.277,995.214 425.513,1006.1 
  429.749,1010.13 433.985,1022.62 438.22,1001.66 442.456,987.555 446.692,969.82 450.928,949.263 455.164,943.217 459.4,950.069 463.636,969.014 467.872,935.961 
  472.108,917.419 476.344,916.613 480.58,901.296 484.816,904.521 489.052,908.552 493.288,929.109 497.524,918.629 501.76,910.97 505.996,878.321 510.232,855.748 
  514.468,830.757 518.704,843.253 522.94,819.068 527.176,812.215 531.412,784.403 535.648,755.381 539.884,771.101 544.12,748.932 548.356,758.606 552.592,801.332 
  556.828,834.385 561.064,803.348 565.3,816.246 569.536,793.271 573.772,835.997 578.008,835.594 582.244,842.85 586.48,886.785 590.716,892.832 594.952,871.468 
  599.188,851.717 603.424,835.997 607.66,834.788 611.896,841.237 616.132,826.726 620.368,828.742 624.604,803.348 628.84,791.658 633.076,775.535 637.311,759.009 
  641.547,767.877 645.783,768.683 650.019,783.597 654.255,809.797 658.491,779.969 662.727,779.566 666.963,744.498 671.199,744.901 675.435,739.258 679.671,748.126 
  683.907,733.212 688.143,732.809 692.379,723.135 696.615,696.934 700.851,696.934 705.087,712.252 709.323,738.855 713.559,740.87 717.795,741.676 722.031,742.886 
  726.267,756.59 730.503,770.698 734.739,759.412 738.975,759.815 743.211,750.947 747.447,752.963 751.683,749.335 755.919,738.049 760.155,738.049 764.391,731.599 
  768.627,729.987 772.863,709.43 777.099,695.725 781.335,689.679 785.571,715.476 789.807,707.415 794.043,704.19 798.279,692.904 802.515,673.959 806.751,657.836 
  810.987,638.085 815.223,645.34 819.459,640.1 823.695,643.325 827.931,603.823 832.167,604.629 836.403,613.9 840.638,607.854 844.874,612.691 849.11,623.574 
  853.346,659.448 857.582,663.076 861.818,670.734 866.054,656.626 870.29,674.362 874.526,649.371 878.762,642.519 882.998,638.488 887.234,640.906 891.47,641.309 
  895.706,617.528 899.942,628.814 904.178,635.263 908.414,645.34 912.65,628.008 916.886,644.131 921.122,666.3 925.358,675.571 929.594,685.648 933.83,682.424 
  938.066,686.051 942.302,684.842 946.538,689.679 950.774,686.051 955.01,703.384 959.246,694.516 963.482,694.919 967.718,693.71 971.954,677.587 976.19,696.128 
  980.426,684.439 984.662,684.439 988.898,684.439 993.134,717.089 997.37,717.895 1001.61,714.267 1005.84,692.501 1010.08,684.036 1014.31,677.99 1018.55,643.325 
  1022.79,620.752 1027.02,600.598 1031.26,574.398 1035.49,538.121 1039.73,521.594 1043.97,534.09 1048.2,538.121 1052.44,537.315 1056.67,552.229 1060.91,575.204 
  1065.15,597.777 1069.38,594.955 1073.62,628.411 1077.85,638.488 1082.09,638.891 1086.33,617.528 1090.56,590.521 1094.8,595.358 1099.03,565.127 1103.27,580.041 
  1107.51,608.257 1111.74,604.629 1115.98,596.164 1120.21,603.823 1124.45,635.263 1128.69,633.248 1132.92,654.208 1137.16,658.239 1141.39,680.811 1145.63,657.433 
  1149.86,617.931 1154.1,659.448 1158.34,643.728 1162.57,614.303 1166.81,592.94 1171.04,601.001 1175.28,607.048 1179.52,617.931 1183.75,602.211 1187.99,608.66 
  1192.22,639.697 1196.46,620.752 1200.7,628.008 1204.93,633.651 1209.17,635.263 1213.4,629.217 1217.64,621.155 1221.88,609.466 1226.11,619.946 1230.35,609.466 
  1234.58,573.592 1238.82,550.616 1243.06,532.075 1247.29,536.912 1251.53,567.143 1255.76,554.647 1260,547.795 1264.24,556.662 1268.47,605.838 1272.71,611.481 
  1276.94,628.411 1281.18,605.435 1285.42,619.14 1289.65,636.472 1293.89,602.614 1298.12,612.288 1302.36,605.032 1306.6,592.134 1310.83,559.887 1315.07,575.204 
  1319.3,553.841 1323.54,595.761 1327.78,589.312 1332.01,586.49 1336.25,577.22 1340.48,590.118 1344.72,587.297 1348.96,558.275 1353.19,553.841 1357.43,540.136 
  1361.66,577.623 1365.9,560.29 1370.14,570.367 1374.37,569.964 1378.61,603.42 1382.84,598.583 1387.08,630.023 1391.32,661.06 1395.55,648.565 1399.79,661.06 
  1404.02,628.814 1408.26,636.069 1412.5,614.706 1416.73,610.675 1420.97,576.01 1425.2,579.638 1429.44,567.143 1433.68,542.958 1437.91,537.718 1442.15,505.068 
  1446.38,496.2 1450.62,503.053 1454.86,525.222 1459.09,512.324 1463.33,528.447 1467.56,515.951 1471.8,501.441 1476.04,528.85 1480.27,532.075 1484.51,555.453 
  1488.74,570.367 1492.98,549.407 1497.22,565.933 1501.45,568.755 1505.69,548.601 1509.92,568.755 1514.16,571.576 1518.4,577.623 1522.63,578.832 1526.87,565.53 
  1531.1,560.693 1535.34,594.149 1539.58,588.103 1543.81,589.312 1548.05,608.257 1552.28,591.731 1556.52,584.475 1560.75,569.561 1564.99,604.226 1569.23,621.155 
  1573.46,642.116 1577.7,634.457 1581.93,607.451 1586.17,607.451 1590.41,630.426 1594.64,620.349 1598.88,642.116 1603.11,646.146 1607.35,613.094 1611.59,596.567 
  1615.82,583.669 1620.06,561.903 1624.29,565.127 1628.53,591.731 1632.77,553.035 1637,586.087 1641.24,585.281 1645.47,613.9 1649.71,594.955 1653.95,620.349 
  1658.18,637.682 1662.42,642.922 1666.65,655.014 1670.89,629.62 1675.13,646.549 1679.36,619.543 1683.6,623.574 1687.83,592.134 1692.07,631.635 1696.31,628.814 
  1700.54,636.069 1704.78,668.316 1709.01,671.54 1713.25,657.433 1717.49,665.897 1721.72,650.983 1725.96,637.682 1730.19,636.069 1734.43,611.481 1738.67,614.706 
  1742.9,604.226 1747.14,580.444 1751.37,551.422 1755.61,541.345 1759.85,529.253 1764.08,560.29 1768.32,558.275 1772.55,576.01 1776.79,570.367 1781.03,546.586 
  1785.26,525.625 1789.5,524.013 1793.73,530.059 1797.97,538.927 1802.21,535.702 1806.44,521.595 1810.68,525.222 1814.91,486.124 1819.15,507.487 1823.39,532.478 
  1827.62,512.324 1831.86,493.379 1836.09,495.394 1840.33,499.425 1844.57,516.355 1848.8,530.865 1853.04,534.493 1857.27,551.019 1861.51,539.733 1865.75,529.656 
  1869.98,539.733 1874.22,570.77 1878.45,594.149 1882.69,570.367 1886.93,551.826 1891.16,528.044 1895.4,538.121 1899.63,558.678 1903.87,562.306 1908.11,542.958 
  1912.34,541.346 1916.58,544.167 1920.81,529.253 1925.05,563.515 1929.29,561.903 1933.52,579.235 1937.76,547.795 1941.99,538.927 1946.23,553.841 1950.46,565.53 
  1954.7,601.001 1958.94,600.195 1963.17,580.847 1967.41,574.398 1971.64,594.552 1975.88,602.614 1980.12,635.263 1984.35,641.712 1988.59,621.155 1992.82,598.583 
  1997.06,589.715 2001.3,603.017 2005.53,632.442 2009.77,650.58 2014,657.836 2018.24,640.906 2022.48,627.202 2026.71,606.644 2030.95,601.001 2035.18,609.869 
  2039.42,623.977 2043.66,595.761 2047.89,588.103 2052.13,566.336 2056.36,561.499 2060.6,573.592 2064.84,557.872 2069.07,569.964 2073.31,568.352 2077.54,573.189 
  2081.78,566.74 2086.02,566.74 2090.25,565.933 2094.49,601.808 2098.72,578.832 2102.96,552.632 2107.2,568.755 2111.43,555.453 2115.67,557.469 2119.9,564.724 
  2124.14,543.764 2128.38,540.539 2132.61,527.238 2136.85,488.945 2141.08,499.425 2145.32,523.207 2149.56,505.068 2153.79,509.099 2158.03,528.447 2162.26,529.253 
  2166.5,547.795 2170.74,560.693 2174.97,584.878 2179.21,585.281 2183.44,580.847 2187.68,557.066 2191.92,588.506 2196.15,595.761 2200.39,569.158 2204.62,591.731 
  2208.86,592.537 2213.1,539.33 2217.33,536.105 2221.57,557.066 2225.8,584.878 2230.04,590.924 2234.28,579.638 2238.51,565.933 2242.75,577.22 2246.98,561.499 
  2251.22,564.321 
  "/>
<polyline clip-path="url(#clip602)" style="stroke:#e26f46; stroke-linecap:round; stroke-linejoin:round; stroke-width:4; stroke-opacity:0.5; fill:none" points="
  175.59,1210.06 179.826,1266.49 184.062,1447.87 188.298,1201.99 192.534,1250.36 196.77,1210.06 201.006,1206.02 205.242,1306.79 209.478,956.115 213.714,1201.99 
  217.95,1044.79 222.186,1081.07 226.422,1266.49 230.658,1105.25 234.893,1266.49 239.129,1371.29 243.365,1117.35 247.601,976.269 251.837,1181.84 256.073,996.423 
  260.309,1335.01 264.545,1258.43 268.781,1016.58 273.017,976.269 277.253,1149.59 281.489,1185.87 285.725,1101.22 289.961,1093.16 294.197,1068.98 298.433,1085.1 
  302.669,1197.96 306.905,1222.15 311.141,1238.27 315.377,1028.67 319.613,1197.96 323.849,839.222 328.085,1089.13 332.321,1181.84 336.557,980.3 340.793,1161.69 
  345.029,1048.82 349.265,1149.59 353.501,948.053 357.737,1161.69 361.973,1060.92 366.209,1004.48 370.445,855.345 374.681,1109.29 378.917,992.392 383.153,1234.24 
  387.389,1129.44 391.625,1056.89 395.861,1105.25 400.097,1044.79 404.333,1125.41 408.569,919.838 412.805,1347.1 417.041,927.9 421.277,1060.92 425.513,956.115 
  429.749,843.253 433.985,1254.39 438.22,1044.79 442.456,1068.98 446.692,1024.64 450.928,935.961 455.164,819.068 459.4,944.023 463.636,1169.75 467.872,996.423 
  472.108,968.208 476.344,1044.79 480.58,903.715 484.816,891.622 489.052,819.068 493.288,875.499 497.524,887.591 501.76,1133.47 505.996,839.222 510.232,811.006 
  514.468,960.146 518.704,891.622 522.94,935.961 527.176,931.93 531.412,1024.64 535.648,770.698 539.884,811.006 544.12,806.975 548.356,613.497 552.592,561.096 
  556.828,1085.1 561.064,649.774 565.3,867.437 569.536,653.805 573.772,734.421 578.008,927.9 582.244,589.312 586.48,903.715 590.716,1040.76 594.952,891.622 
  599.188,774.729 603.424,778.76 607.66,637.682 611.896,1081.07 616.132,730.39 620.368,1000.45 624.604,1028.67 628.84,964.177 633.076,827.129 637.311,694.113 
  641.547,617.528 645.783,766.667 650.019,702.175 654.255,935.961 658.491,750.544 662.727,746.513 666.963,911.776 671.199,802.945 675.435,661.866 679.671,782.791 
  683.907,625.589 688.143,915.807 692.379,964.177 696.615,637.682 700.851,746.513 705.087,395.833 709.323,915.807 713.559,746.513 717.795,750.544 722.031,633.651 
  726.267,621.558 730.503,819.068 734.739,702.175 738.975,637.682 743.211,899.684 747.447,661.866 751.683,935.961 755.919,754.575 760.155,762.637 764.391,770.698 
  768.627,762.637 772.863,706.205 777.099,706.205 781.335,549.004 785.571,919.838 789.807,625.589 794.043,823.099 798.279,754.575 802.515,698.144 806.751,754.575 
  810.987,557.066 815.223,569.158 819.459,645.743 823.695,806.975 827.931,839.222 832.167,593.343 836.403,710.236 840.638,565.127 844.874,536.912 849.11,557.066 
  853.346,629.62 857.582,516.758 861.818,677.99 866.054,411.957 870.29,847.283 874.526,686.051 878.762,649.774 882.998,613.497 887.234,645.743 891.47,915.807 
  895.706,665.897 899.942,593.343 904.178,536.912 908.414,589.312 912.65,597.374 916.886,617.528 921.122,609.466 925.358,637.682 929.594,649.774 933.83,677.99 
  938.066,778.76 942.302,657.836 946.538,637.682 950.774,415.987 955.01,758.606 959.246,839.222 963.482,702.175 967.718,738.452 971.954,617.528 976.19,714.267 
  980.426,766.667 984.662,706.205 988.898,601.404 993.134,589.312 997.37,669.928 1001.61,843.253 1005.84,690.082 1010.08,577.22 1014.31,802.945 1018.55,597.374 
  1022.79,766.667 1027.02,706.205 1031.26,927.9 1035.49,597.374 1039.73,633.651 1043.97,625.589 1048.2,605.435 1052.44,516.758 1056.67,456.295 1060.91,371.649 
  1065.15,565.127 1069.38,444.203 1073.62,565.127 1077.85,432.111 1082.09,758.606 1086.33,665.897 1090.56,597.374 1094.8,665.897 1099.03,686.051 1103.27,597.374 
  1107.51,536.912 1111.74,778.76 1115.98,665.897 1120.21,436.141 1124.45,544.973 1128.69,395.833 1132.92,645.743 1137.16,363.587 1141.39,835.191 1145.63,879.53 
  1149.86,500.634 1154.1,694.113 1158.34,742.483 1162.57,750.544 1166.81,524.819 1171.04,605.435 1175.28,686.051 1179.52,589.312 1183.75,601.404 1187.99,484.511 
  1192.22,915.807 1196.46,536.912 1200.7,448.234 1204.93,536.912 1209.17,605.435 1213.4,665.897 1217.64,794.883 1221.88,432.111 1226.11,665.897 1230.35,794.883 
  1234.58,726.359 1238.82,609.466 1243.06,504.665 1247.29,553.035 1251.53,544.973 1255.76,585.281 1260,677.99 1264.24,536.912 1268.47,561.096 1272.71,436.141 
  1276.94,496.604 1281.18,424.049 1285.42,553.035 1289.65,855.345 1293.89,420.018 1298.12,516.758 1302.36,766.667 1306.6,1028.67 1310.83,617.528 1315.07,605.435 
  1319.3,266.848 1323.54,561.096 1327.78,726.359 1332.01,516.758 1336.25,516.758 1340.48,444.203 1344.72,637.682 1348.96,706.205 1353.19,770.698 1357.43,391.803 
  1361.66,686.051 1365.9,496.604 1370.14,698.144 1374.37,424.049 1378.61,645.743 1382.84,415.987 1387.08,347.464 1391.32,661.866 1395.55,633.651 1399.79,766.667 
  1404.02,512.727 1408.26,597.374 1412.5,694.113 1416.73,758.606 1420.97,597.374 1425.2,730.39 1429.44,657.836 1433.68,536.912 1437.91,758.606 1442.15,444.203 
  1446.38,585.281 1450.62,383.741 1454.86,653.805 1459.09,411.957 1463.33,633.651 1467.56,605.435 1471.8,415.987 1476.04,484.511 1480.27,432.111 1484.51,355.525 
  1488.74,653.805 1492.98,605.435 1497.22,524.819 1501.45,573.189 1505.69,508.696 1509.92,460.326 1514.16,690.082 1518.4,516.758 1522.63,665.897 1526.87,504.665 
  1531.1,444.203 1535.34,770.698 1539.58,553.035 1543.81,371.649 1548.05,710.236 1552.28,488.542 1556.52,750.544 1560.75,528.85 1564.99,532.881 1569.23,456.295 
  1573.46,778.76 1577.7,710.236 1581.93,565.127 1586.17,561.096 1590.41,544.973 1594.64,415.987 1598.88,601.404 1603.11,875.499 1607.35,702.175 1611.59,665.897 
  1615.82,702.175 1620.06,440.172 1624.29,565.127 1628.53,790.852 1632.77,444.203 1637,633.651 1641.24,641.712 1645.47,544.973 1649.71,536.912 1653.95,536.912 
  1658.18,484.511 1662.42,472.419 1666.65,831.16 1670.89,403.895 1675.13,774.729 1679.36,625.589 1683.6,927.9 1687.83,355.525 1692.07,790.852 1696.31,710.236 
  1700.54,536.912 1704.78,593.343 1709.01,577.22 1713.25,573.189 1717.49,504.665 1721.72,665.897 1725.96,613.497 1730.19,750.544 1734.43,762.637 1738.67,782.791 
  1742.9,859.376 1747.14,625.589 1751.37,436.141 1755.61,657.836 1759.85,355.525 1764.08,532.881 1768.32,597.374 1772.55,504.665 1776.79,794.883 1781.03,677.99 
  1785.26,621.558 1789.5,335.371 1793.73,335.371 1797.97,536.912 1802.21,665.897 1806.44,512.727 1810.68,774.729 1814.91,448.234 1819.15,557.066 1823.39,468.388 
  1827.62,605.435 1831.86,395.833 1836.09,424.049 1840.33,504.665 1844.57,524.819 1848.8,549.004 1853.04,383.741 1857.27,661.866 1861.51,806.975 1865.75,266.848 
  1869.98,415.987 1874.22,415.987 1878.45,464.357 1882.69,673.959 1886.93,669.928 1891.16,585.281 1895.4,549.004 1899.63,549.004 1903.87,706.205 1908.11,367.618 
  1912.34,726.359 1916.58,649.774 1920.81,226.54 1925.05,488.542 1929.29,432.111 1933.52,686.051 1937.76,754.575 1941.99,585.281 1946.23,512.727 1950.46,351.495 
  1954.7,754.575 1958.94,500.634 1963.17,569.158 1967.41,472.419 1971.64,605.435 1975.88,371.649 1980.12,665.897 1984.35,734.421 1988.59,629.62 1992.82,706.205 
  1997.06,746.513 2001.3,307.156 2005.53,504.665 2009.77,673.959 2014,686.051 2018.24,698.144 2022.48,730.39 2026.71,528.85 2030.95,403.895 2035.18,617.528 
  2039.42,879.53 2043.66,601.404 2047.89,686.051 2052.13,746.513 2056.36,516.758 2060.6,561.096 2064.84,524.819 2069.07,472.419 2073.31,492.573 2077.54,758.606 
  2081.78,597.374 2086.02,524.819 2090.25,468.388 2094.49,698.144 2098.72,637.682 2102.96,403.895 2107.2,645.743 2111.43,456.295 2115.67,540.942 2119.9,694.113 
  2124.14,597.374 2128.38,516.758 2132.61,827.129 2136.85,468.388 2141.08,375.679 2145.32,565.127 2149.56,512.727 2153.79,476.45 2158.03,613.497 2162.26,484.511 
  2166.5,565.127 2170.74,383.741 2174.97,444.203 2179.21,573.189 2183.44,613.497 2187.68,383.741 2191.92,553.035 2196.15,669.928 2200.39,621.558 2204.62,669.928 
  2208.86,694.113 2213.1,625.589 2217.33,448.234 2221.57,528.85 2225.8,375.679 2230.04,698.144 2234.28,625.589 2238.51,403.895 2242.75,847.283 2246.98,677.99 
  2251.22,162.047 2255.46,593.343 2259.69,657.836 2263.93,806.975 2268.16,436.141 2272.4,585.281 2276.64,488.542 2280.87,516.758 2285.11,690.082 2289.34,706.205 
  
  "/>
</svg>
